<?xml version="1.0" encoding="UTF-8" standalone="no"?>
<!DOCTYPE svg PUBLIC "-//W3C//DTD SVG 1.1//EN"
 "http://www.w3.org/Graphics/SVG/1.1/DTD/svg11.dtd">
<!-- Generated by graphviz version 2.36.0 (20140111.2315)
 -->
<!-- Title: state_machine Pages: 1 -->
<svg width="644pt" height="548pt"
 viewBox="0.00 0.00 644.00 548.00" xmlns="http://www.w3.org/2000/svg" xmlns:xlink="http://www.w3.org/1999/xlink">
<g id="graph0" class="graph" transform="scale(1 1) rotate(0) translate(4 544)">
<title>state_machine</title>
<polygon fill="white" stroke="none" points="-4,4 -4,-544 640,-544 640,4 -4,4"/>
<!-- _0 -->
<g id="node1" class="node"><title>_0</title>
<ellipse fill="palegreen" stroke="palegreen" cx="462" cy="-522" rx="39.9464" ry="18"/>
<text text-anchor="middle" x="462" y="-518.3" font-family="Times,serif" font-size="14.00">throttled</text>
</g>
<!-- _8 -->
<g id="node9" class="node"><title>_8</title>
<ellipse fill="palegreen" stroke="palegreen" cx="462" cy="-450" rx="27" ry="18"/>
<text text-anchor="middle" x="462" y="-446.3" font-family="Times,serif" font-size="14.00">idle</text>
</g>
<!-- _0&#45;&gt;_8 -->
<g id="edge25" class="edge"><title>_0&#45;&gt;_8</title>
<path fill="none" stroke="black" d="M456.122,-504.055C455.291,-496.231 455.054,-486.748 455.41,-477.977"/>
<polygon fill="black" stroke="black" points="458.916,-478.013 456.138,-467.789 451.934,-477.514 458.916,-478.013"/>
</g>
<!-- _1 -->
<g id="node2" class="node"><title>_1</title>
<ellipse fill="palegreen" stroke="palegreen" cx="329" cy="-306" rx="59.1941" ry="18"/>
<text text-anchor="middle" x="329" y="-302.3" font-family="Times,serif" font-size="14.00">dry run active</text>
</g>
<!-- _1&#45;&gt;_1 -->
<g id="edge6" class="edge"><title>_1&#45;&gt;_1</title>
<path fill="none" stroke="black" d="M369.801,-319.203C389.074,-320.737 406,-316.336 406,-306 406,-297.521 394.61,-293.036 379.878,-292.545"/>
<polygon fill="black" stroke="black" points="379.71,-289.048 369.801,-292.797 379.885,-296.046 379.71,-289.048"/>
</g>
<!-- _2 -->
<g id="node3" class="node"><title>_2</title>
<ellipse fill="palegreen" stroke="palegreen" cx="332" cy="-234" rx="65.4659" ry="18"/>
<text text-anchor="middle" x="332" y="-230.3" font-family="Times,serif" font-size="14.00">dry run success</text>
</g>
<!-- _1&#45;&gt;_2 -->
<g id="edge7" class="edge"><title>_1&#45;&gt;_2</title>
<path fill="none" stroke="black" d="M329.742,-287.697C330.072,-279.983 330.469,-270.712 330.838,-262.112"/>
<polygon fill="black" stroke="black" points="334.335,-262.245 331.267,-252.104 327.342,-261.945 334.335,-262.245"/>
</g>
<!-- _4 -->
<g id="node5" class="node"><title>_4</title>
<ellipse fill="palegreen" stroke="palegreen" cx="490" cy="-162" rx="61.6163" ry="18"/>
<text text-anchor="middle" x="490" y="-158.3" font-family="Times,serif" font-size="14.00">dry run failure</text>
</g>
<!-- _1&#45;&gt;_4 -->
<g id="edge8" class="edge"><title>_1&#45;&gt;_4</title>
<path fill="none" stroke="black" d="M354.247,-289.554C369.771,-279.596 389.734,-265.94 406,-252 429.328,-232.007 453.103,-206.204 469.377,-187.534"/>
<polygon fill="black" stroke="black" points="472.204,-189.615 476.083,-179.756 466.903,-185.044 472.204,-189.615"/>
</g>
<!-- _7 -->
<g id="node8" class="node"><title>_7</title>
<ellipse fill="palegreen" stroke="palegreen" cx="75" cy="-18" rx="38.0212" ry="18"/>
<text text-anchor="middle" x="75" y="-14.3" font-family="Times,serif" font-size="14.00">stopped</text>
</g>
<!-- _1&#45;&gt;_7 -->
<g id="edge9" class="edge"><title>_1&#45;&gt;_7</title>
<path fill="none" stroke="black" d="M288.419,-292.629C239.194,-275.474 157.314,-239.645 113,-180 83.4036,-140.164 76.4486,-80.7519 75.0539,-46.3409"/>
<polygon fill="black" stroke="black" points="78.5461,-46.0044 74.7748,-36.1036 71.5487,-46.1953 78.5461,-46.0044"/>
</g>
<!-- _9 -->
<g id="node10" class="node"><title>_9</title>
<ellipse fill="palegreen" stroke="palegreen" cx="329" cy="-378" rx="31.2735" ry="18"/>
<text text-anchor="middle" x="329" y="-374.3" font-family="Times,serif" font-size="14.00">active</text>
</g>
<!-- _1&#45;&gt;_9 -->
<g id="edge10" class="edge"><title>_1&#45;&gt;_9</title>
<path fill="none" stroke="black" d="M334.913,-324.275C335.715,-332.03 335.94,-341.362 335.591,-350.005"/>
<polygon fill="black" stroke="black" points="332.094,-349.832 334.878,-360.055 339.077,-350.327 332.094,-349.832"/>
</g>
<!-- _3 -->
<g id="node4" class="node"><title>_3</title>
<ellipse fill="palegreen" stroke="palegreen" cx="238" cy="-162" rx="115.534" ry="18"/>
<text text-anchor="middle" x="238" y="-158.3" font-family="Times,serif" font-size="14.00">dry run success; leaving open</text>
</g>
<!-- _2&#45;&gt;_3 -->
<g id="edge11" class="edge"><title>_2&#45;&gt;_3</title>
<path fill="none" stroke="black" d="M310.198,-216.765C297.892,-207.6 282.313,-195.999 268.78,-185.921"/>
<polygon fill="black" stroke="black" points="270.776,-183.044 260.665,-179.878 266.595,-188.658 270.776,-183.044"/>
</g>
<!-- _5 -->
<g id="node6" class="node"><title>_5</title>
<ellipse fill="palegreen" stroke="palegreen" cx="445" cy="-90" rx="51.4931" ry="18"/>
<text text-anchor="middle" x="445" y="-86.3" font-family="Times,serif" font-size="14.00">dry run idle</text>
</g>
<!-- _2&#45;&gt;_5 -->
<g id="edge12" class="edge"><title>_2&#45;&gt;_5</title>
<path fill="none" stroke="black" d="M348.032,-216.216C357.591,-205.986 369.81,-192.515 380,-180 397.027,-159.089 415.007,-134.227 427.73,-116.103"/>
<polygon fill="black" stroke="black" points="430.675,-117.998 433.526,-107.794 424.934,-113.993 430.675,-117.998"/>
</g>
<!-- _3&#45;&gt;_3 -->
<g id="edge31" class="edge"><title>_3&#45;&gt;_3</title>
<path fill="none" stroke="black" d="M314.871,-175.426C345.421,-176.143 371,-171.668 371,-162 371,-153.427 350.888,-148.937 325.032,-148.53"/>
<polygon fill="black" stroke="black" points="324.856,-145.031 314.871,-148.574 324.886,-152.031 324.856,-145.031"/>
</g>
<!-- _3&#45;&gt;_5 -->
<g id="edge32" class="edge"><title>_3&#45;&gt;_5</title>
<path fill="none" stroke="black" d="M283.94,-145.465C318.305,-133.844 365.084,-118.025 399.374,-106.429"/>
<polygon fill="black" stroke="black" points="400.787,-109.646 409.139,-103.127 398.545,-103.015 400.787,-109.646"/>
</g>
<!-- _3&#45;&gt;_9 -->
<g id="edge33" class="edge"><title>_3&#45;&gt;_9</title>
<path fill="none" stroke="black" d="M236.268,-180.341C234.01,-211.41 233.097,-277.639 260,-324 268.707,-339.004 283.488,-351.212 297.141,-360.114"/>
<polygon fill="black" stroke="black" points="295.523,-363.228 305.875,-365.482 299.188,-357.264 295.523,-363.228"/>
</g>
<!-- _4&#45;&gt;_5 -->
<g id="edge26" class="edge"><title>_4&#45;&gt;_5</title>
<path fill="none" stroke="black" d="M479.107,-144.055C473.745,-135.715 467.173,-125.491 461.233,-116.252"/>
<polygon fill="black" stroke="black" points="464.145,-114.308 455.793,-107.789 458.256,-118.093 464.145,-114.308"/>
</g>
<!-- _5&#45;&gt;_1 -->
<g id="edge2" class="edge"><title>_5&#45;&gt;_1</title>
<path fill="none" stroke="black" d="M489.373,-99.2209C514.723,-106.436 544.472,-119.746 560,-144 568.627,-157.475 567.934,-166.106 560,-180 523.739,-243.505 442.256,-276.499 386.44,-292.288"/>
<polygon fill="black" stroke="black" points="385.406,-288.942 376.679,-294.949 387.247,-295.696 385.406,-288.942"/>
</g>
<!-- _5&#45;&gt;_5 -->
<g id="edge5" class="edge"><title>_5&#45;&gt;_5</title>
<path fill="none" stroke="black" d="M480.502,-103.101C498.207,-104.914 514,-100.547 514,-90 514,-81.5131 503.774,-77.0277 490.554,-76.5439"/>
<polygon fill="black" stroke="black" points="490.372,-73.048 480.502,-76.8988 490.619,-80.0436 490.372,-73.048"/>
</g>
<!-- _6 -->
<g id="node7" class="node"><title>_6</title>
<ellipse fill="palegreen" stroke="palegreen" cx="445" cy="-18" rx="68.3417" ry="18"/>
<text text-anchor="middle" x="445" y="-14.3" font-family="Times,serif" font-size="14.00">dry run throttled</text>
</g>
<!-- _5&#45;&gt;_6 -->
<g id="edge3" class="edge"><title>_5&#45;&gt;_6</title>
<path fill="none" stroke="black" d="M439.122,-72.055C438.304,-64.3456 438.061,-55.0269 438.395,-46.3642"/>
<polygon fill="black" stroke="black" points="441.894,-46.4915 439.087,-36.2753 434.911,-46.0122 441.894,-46.4915"/>
</g>
<!-- _5&#45;&gt;_7 -->
<g id="edge1" class="edge"><title>_5&#45;&gt;_7</title>
<path fill="none" stroke="black" d="M399.557,-81.2413C327.891,-68.247 189.804,-42.1421 119.027,-28.2275"/>
<polygon fill="black" stroke="black" points="119.578,-24.7687 109.089,-26.266 118.222,-31.6362 119.578,-24.7687"/>
</g>
<!-- _5&#45;&gt;_8 -->
<g id="edge4" class="edge"><title>_5&#45;&gt;_8</title>
<path fill="none" stroke="black" d="M490.115,-98.9292C520.315,-106.513 559.088,-120.379 586,-144 620.098,-173.929 636,-187.63 636,-233 636,-307 636,-307 636,-307 636,-377.863 547.487,-421.097 496.583,-439.161"/>
<polygon fill="black" stroke="black" points="495.282,-435.906 486.941,-442.439 497.535,-442.534 495.282,-435.906"/>
</g>
<!-- _6&#45;&gt;_5 -->
<g id="edge27" class="edge"><title>_6&#45;&gt;_5</title>
<path fill="none" stroke="black" d="M450.913,-36.2753C451.715,-44.03 451.94,-53.3618 451.591,-62.0054"/>
<polygon fill="black" stroke="black" points="448.094,-61.8325 450.878,-72.055 455.077,-62.3275 448.094,-61.8325"/>
</g>
<!-- _7&#45;&gt;_5 -->
<g id="edge30" class="edge"><title>_7&#45;&gt;_5</title>
<path fill="none" stroke="black" d="M110.448,-24.9541C175.885,-36.7117 315.549,-63.0659 392.163,-78.0455"/>
<polygon fill="black" stroke="black" points="391.602,-81.5021 402.089,-79.992 392.949,-74.6329 391.602,-81.5021"/>
</g>
<!-- _7&#45;&gt;_7 -->
<g id="edge28" class="edge"><title>_7&#45;&gt;_7</title>
<path fill="none" stroke="black" d="M102.082,-30.854C117.137,-33.2534 131,-28.9688 131,-18 131,-9.60205 122.874,-5.12219 112.308,-4.56041"/>
<polygon fill="black" stroke="black" points="111.866,-1.07991 102.082,-5.146 112.266,-8.06846 111.866,-1.07991"/>
</g>
<!-- _7&#45;&gt;_8 -->
<g id="edge29" class="edge"><title>_7&#45;&gt;_8</title>
<path fill="none" stroke="black" d="M67.1438,-35.7524C50.993,-61.1836 18,-111.794 18,-161 18,-307 18,-307 18,-307 18,-393.044 319.347,-433.193 425.593,-445.073"/>
<polygon fill="black" stroke="black" points="425.217,-448.553 435.539,-446.167 425.982,-441.595 425.217,-448.553"/>
</g>
<!-- _8&#45;&gt;_0 -->
<g id="edge14" class="edge"><title>_8&#45;&gt;_0</title>
<path fill="none" stroke="black" d="M467.862,-467.789C468.7,-475.591 468.945,-485.067 468.597,-493.848"/>
<polygon fill="black" stroke="black" points="465.089,-493.834 467.878,-504.055 472.072,-494.325 465.089,-493.834"/>
</g>
<!-- _8&#45;&gt;_5 -->
<g id="edge15" class="edge"><title>_8&#45;&gt;_5</title>
<path fill="none" stroke="black" d="M484.268,-439.73C527.589,-422.017 618,-378.619 618,-307 618,-307 618,-307 618,-233 618,-187.63 602.098,-173.929 568,-144 546.957,-125.53 518.662,-113.024 494.448,-104.823"/>
<polygon fill="black" stroke="black" points="495.293,-101.418 484.701,-101.674 493.141,-108.079 495.293,-101.418"/>
</g>
<!-- _8&#45;&gt;_7 -->
<g id="edge17" class="edge"><title>_8&#45;&gt;_7</title>
<path fill="none" stroke="black" d="M435.369,-446.839C336.837,-437.639 0,-397.97 0,-307 0,-307 0,-307 0,-161 0,-115.422 28.3076,-68.6383 50.3732,-41.7768"/>
<polygon fill="black" stroke="black" points="53.1081,-43.9646 56.9825,-34.1035 47.8043,-39.3962 53.1081,-43.9646"/>
</g>
<!-- _8&#45;&gt;_8 -->
<g id="edge16" class="edge"><title>_8&#45;&gt;_8</title>
<path fill="none" stroke="black" d="M481.895,-462.432C494.688,-465.675 507,-461.531 507,-450 507,-441.622 500.501,-437.143 492.039,-436.564"/>
<polygon fill="black" stroke="black" points="491.502,-433.1 481.895,-437.568 492.191,-440.066 491.502,-433.1"/>
</g>
<!-- _8&#45;&gt;_9 -->
<g id="edge13" class="edge"><title>_8&#45;&gt;_9</title>
<path fill="none" stroke="black" d="M441.51,-438.216C419.93,-426.858 385.67,-408.826 360.62,-395.642"/>
<polygon fill="black" stroke="black" points="361.995,-392.411 351.516,-390.85 358.735,-398.605 361.995,-392.411"/>
</g>
<!-- _9&#45;&gt;_1 -->
<g id="edge19" class="edge"><title>_9&#45;&gt;_1</title>
<path fill="none" stroke="black" d="M323.122,-360.055C322.304,-352.346 322.061,-343.027 322.395,-334.364"/>
<polygon fill="black" stroke="black" points="325.894,-334.491 323.087,-324.275 318.911,-334.012 325.894,-334.491"/>
</g>
<!-- _9&#45;&gt;_7 -->
<g id="edge18" class="edge"><title>_9&#45;&gt;_7</title>
<path fill="none" stroke="black" d="M297.949,-375.139C226.396,-369.004 56,-343.05 56,-235 56,-235 56,-235 56,-161 56,-120.64 63.6339,-74.3918 69.224,-45.9364"/>
<polygon fill="black" stroke="black" points="72.6916,-46.447 71.2462,-35.9512 65.8309,-45.0575 72.6916,-46.447"/>
</g>
<!-- _9&#45;&gt;_9 -->
<g id="edge20" class="edge"><title>_9&#45;&gt;_9</title>
<path fill="none" stroke="black" d="M351.682,-390.656C365.24,-393.469 378,-389.25 378,-378 378,-369.65 370.971,-365.174 361.804,-364.571"/>
<polygon fill="black" stroke="black" points="361.386,-361.092 351.682,-365.344 361.919,-368.072 361.386,-361.092"/>
</g>
<!-- _10 -->
<g id="node11" class="node"><title>_10</title>
<ellipse fill="palegreen" stroke="palegreen" cx="462" cy="-306" rx="37.0701" ry="18"/>
<text text-anchor="middle" x="462" y="-302.3" font-family="Times,serif" font-size="14.00">success</text>
</g>
<!-- _9&#45;&gt;_10 -->
<g id="edge21" class="edge"><title>_9&#45;&gt;_10</title>
<path fill="none" stroke="black" d="M351.261,-365.284C372.507,-354.102 404.777,-337.117 429.01,-324.363"/>
<polygon fill="black" stroke="black" points="430.645,-327.458 437.864,-319.703 427.385,-321.263 430.645,-327.458"/>
</g>
<!-- _11 -->
<g id="node12" class="node"><title>_11</title>
<ellipse fill="palegreen" stroke="palegreen" cx="551" cy="-306" rx="33.1991" ry="18"/>
<text text-anchor="middle" x="551" y="-302.3" font-family="Times,serif" font-size="14.00">failure</text>
</g>
<!-- _9&#45;&gt;_11 -->
<g id="edge22" class="edge"><title>_9&#45;&gt;_11</title>
<path fill="none" stroke="black" d="M356.839,-369.581C392.249,-359.958 455.149,-342.231 508,-324 510.545,-323.122 513.16,-322.183 515.785,-321.213"/>
<polygon fill="black" stroke="black" points="517.116,-324.451 525.217,-317.622 514.626,-317.909 517.116,-324.451"/>
</g>
<!-- _10&#45;&gt;_8 -->
<g id="edge23" class="edge"><title>_10&#45;&gt;_8</title>
<path fill="none" stroke="black" d="M462,-324.189C462,-348.424 462,-392.888 462,-421.679"/>
<polygon fill="black" stroke="black" points="458.5,-421.871 462,-431.871 465.5,-421.872 458.5,-421.871"/>
</g>
<!-- _11&#45;&gt;_8 -->
<g id="edge24" class="edge"><title>_11&#45;&gt;_8</title>
<path fill="none" stroke="black" d="M540.864,-323.173C525.379,-347.879 495.716,-395.206 477.512,-424.251"/>
<polygon fill="black" stroke="black" points="474.382,-422.655 472.036,-432.987 480.313,-426.372 474.382,-422.655"/>
</g>
</g>
</svg>
