<svg xmlns="http://www.w3.org/2000/svg" xmlns:svg="http://www.w3.org/2000/svg" id="svg4495" width="2256" height="1104" version="1.1" viewBox="0 0 596.9 292.1"><metadata id="metadata4492"/><g id="layer1" transform="translate(0,-4.8999832)"><path id="path3378" d="m 1.1253908,12.933727 3.302002,0 0,-7.0019988 10.6960002,0 32.005,0 8.997,0 0,133.0000118 -8.997,0 -32.005,0 -10.6960002,0 0,-7.002 -3.302002,0 0,-6.995 3.302002,0 0,-7.005 -3.302002,0 0,-6.995 3.302002,0 0,-7.005 -3.302002,0 0,-6.995005 3.302002,0 0,-7.005 -3.302002,0 0,-6.995 3.302002,0 0,-7.005 -3.302002,0 0,-6.995 3.302002,0 0,-7.005 -3.302002,0 0,-6.996005 3.302002,0 0,-7.005 -3.302002,0 0,-6.994999 3.302002,0 0,-7.005002 -3.302002,0 0,-6.994999 3.302002,0 0,-7.005 -3.302002,0 0,-6.995003 m 46.0030022,65.996008 -32.005,0 0,50.005005 32.005,0 0,-50.005005 m -32.005,-12.995 32.005,0 0,-50.006005 -32.005,0 0,50.006005 z" style="fill:none;stroke:#00f;stroke-width:.01mm"/><path id="path3378-2" d="m 61.019219,12.933726 3.302002,0 0,-7.0019978 10.696001,0 32.004998,0 8.997,0 0,133.0000118 -8.997,0 -32.004998,0 -10.696001,0 0,-7.002 -3.302002,0 0,-6.995 3.302002,0 0,-7.005 -3.302002,0 0,-6.995 3.302002,0 0,-7.005 -3.302002,0 0,-6.995007 3.302002,0 0,-7.005 -3.302002,0 0,-6.995 3.302002,0 0,-7.005 -3.302002,0 0,-6.995 3.302002,0 0,-7.005 -3.302002,0 0,-6.996 3.302002,0 0,-7.005 -3.302002,0 0,-6.995 3.302002,0 0,-7.005004 -3.302002,0 0,-6.994999 3.302002,0 0,-7.005 -3.302002,0 0,-6.995004 m 46.003001,65.996007 -32.004998,0 0,50.005007 32.004998,0 0,-50.005007 m -32.004998,-12.995 32.004998,0 0,-50.006003 -32.004998,0 0,50.006003 z" style="fill:none;stroke:#00f;stroke-width:.01mm"/><path id="path3378-3" d="m 480.27603,12.933728 3.302,0 0,-7.0019998 10.696,0 32.005,0 8.997,0 0,133.0000118 -8.997,0 -32.005,0 -10.696,0 0,-7.002 -3.302,0 0,-6.995 3.302,0 0,-7.005 -3.302,0 0,-6.995 3.302,0 0,-7.005 -3.302,0 0,-6.995002 3.302,0 0,-7.005 -3.302,0 0,-6.995 3.302,0 0,-7.005 -3.302,0 0,-6.995 3.302,0 0,-7.005 -3.302,0 0,-6.99601 3.302,0 0,-7.005 -3.302,0 0,-6.99499 3.302,0 0,-7.00501 -3.302,0 0,-6.995 3.302,0 0,-7.005 -3.302,0 0,-6.995 m 46.003,65.99601 -32.005,0 0,50.005002 32.005,0 0,-50.005002 m -32.005,-12.995 32.005,0 0,-50.00601 -32.005,0 0,50.00601 z" style="fill:none;stroke:#00f;stroke-width:.01mm"/><path id="path3378-7" d="m 420.38222,12.933728 3.302,0 0,-7.0019998 10.696,0 32.005,0 8.997,0 0,133.0000118 -8.997,0 -32.005,0 -10.696,0 0,-7.002 -3.302,0 0,-6.995 3.302,0 0,-7.005 -3.302,0 0,-6.995 3.302,0 0,-7.005 -3.302,0 0,-6.995002 3.302,0 0,-7.005 -3.302,0 0,-6.995 3.302,0 0,-7.005 -3.302,0 0,-6.995 3.302,0 0,-7.005 -3.302,0 0,-6.99601 3.302,0 0,-7.005 -3.302,0 0,-6.99499 3.302,0 0,-7.00501 -3.302,0 0,-6.995 3.302,0 0,-7.005 -3.302,0 0,-6.995 m 46.003,65.99601 -32.005,0 0,50.005002 32.005,0 0,-50.005002 m -32.005,-12.995 32.005,0 0,-50.00601 -32.005,0 0,50.00601 z" style="fill:none;stroke:#00f;stroke-width:.01mm"/><path id="path3378-5" d="m 360.4884,12.933728 3.302,0 0,-7.0019998 10.69601,0 32.00499,0 8.99701,0 0,133.0000118 -8.99701,0 -32.00499,0 -10.69601,0 0,-7.002 -3.302,0 0,-6.995 3.302,0 0,-7.005 -3.302,0 0,-6.995 3.302,0 0,-7.005 -3.302,0 0,-6.995002 3.302,0 0,-7.005 -3.302,0 0,-6.995 3.302,0 0,-7.005 -3.302,0 0,-6.995 3.302,0 0,-7.005 -3.302,0 0,-6.99601 3.302,0 0,-7.005 -3.302,0 0,-6.99499 3.302,0 0,-7.00501 -3.302,0 0,-6.995 3.302,0 0,-7.005 -3.302,0 0,-6.995 m 46.003,65.99601 -32.00499,0 0,50.005002 32.00499,0 0,-50.005002 m -32.00499,-12.995 32.00499,0 0,-50.00601 -32.00499,0 0,50.00601 z" style="fill:none;stroke:#00f;stroke-width:.01mm"/><path id="path3378-9" d="m 300.59454,12.933728 3.302,0 0,-7.0019998 10.696,0 32.005,0 8.997,0 0,133.0000118 -8.997,0 -32.005,0 -10.696,0 0,-7.002 -3.302,0 0,-6.995 3.302,0 0,-7.005 -3.302,0 0,-6.995 3.302,0 0,-7.005 -3.302,0 0,-6.995002 3.302,0 0,-7.005 -3.302,0 0,-6.995 3.302,0 0,-7.005 -3.302,0 0,-6.995 3.302,0 0,-7.005 -3.302,0 0,-6.99601 3.302,0 0,-7.005 -3.302,0 0,-6.99499 3.302,0 0,-7.00501 -3.302,0 0,-6.995 3.302,0 0,-7.005 -3.302,0 0,-6.995 m 46.003,65.99601 -32.005,0 0,50.005002 32.005,0 0,-50.005002 m -32.005,-12.995 32.005,0 0,-50.00601 -32.005,0 0,50.00601 z" style="fill:none;stroke:#00f;stroke-width:.01mm"/><path id="path3378-22" d="m 240.70072,12.933728 3.302,0 0,-7.0019998 10.69601,0 32.00499,0 8.99701,0 0,133.0000118 -8.99701,0 -32.00499,0 -10.69601,0 0,-7.002 -3.302,0 0,-6.995 3.302,0 0,-7.005 -3.302,0 0,-6.995 3.302,0 0,-7.005 -3.302,0 0,-6.995002 3.302,0 0,-7.005 -3.302,0 0,-6.995 3.302,0 0,-7.005 -3.302,0 0,-6.995 3.302,0 0,-7.005 -3.302,0 0,-6.99601 3.302,0 0,-7.005 -3.302,0 0,-6.99499 3.302,0 0,-7.00501 -3.302,0 0,-6.995 3.302,0 0,-7.005 -3.302,0 0,-6.995 m 46.003,65.99601 -32.00499,0 0,50.005002 32.00499,0 0,-50.005002 m -32.00499,-12.995 32.00499,0 0,-50.00601 -32.00499,0 0,50.00601 z" style="fill:none;stroke:#00f;stroke-width:.01mm"/><path id="path3378-8" d="m 180.80689,12.933728 3.302,0 0,-7.0019998 10.696,0 32.005,0 8.997,0 0,133.0000118 -8.997,0 -32.005,0 -10.696,0 0,-7.002 -3.302,0 0,-6.995 3.302,0 0,-7.005 -3.302,0 0,-6.995 3.302,0 0,-7.005 -3.302,0 0,-6.995002 3.302,0 0,-7.005 -3.302,0 0,-6.995 3.302,0 0,-7.005 -3.302,0 0,-6.995 3.302,0 0,-7.005 -3.302,0 0,-6.99601 3.302,0 0,-7.005 -3.302,0 0,-6.99499 3.302,0 0,-7.00501 -3.302,0 0,-6.995 3.302,0 0,-7.005 -3.302,0 0,-6.995 m 46.003,65.99601 -32.005,0 0,50.005002 32.005,0 0,-50.005002 m -32.005,-12.995 32.005,0 0,-50.00601 -32.005,0 0,50.00601 z" style="fill:none;stroke:#00f;stroke-width:.01mm"/><path id="path3378-97" d="m 120.91306,12.933728 3.302,0 0,-7.0019998 10.696,0 32.005,0 8.997,0 0,133.0000118 -8.997,0 -32.005,0 -10.696,0 0,-7.002 -3.302,0 0,-6.995 3.302,0 0,-7.005 -3.302,0 0,-6.995 3.302,0 0,-7.005 -3.302,0 0,-6.995002 3.302,0 0,-7.005 -3.302,0 0,-6.995 3.302,0 0,-7.005 -3.302,0 0,-6.995 3.302,0 0,-7.005 -3.302,0 0,-6.99601 3.302,0 0,-7.005 -3.302,0 0,-6.99499 3.302,0 0,-7.00501 -3.302,0 0,-6.995 3.302,0 0,-7.005 -3.302,0 0,-6.995 m 46.003,65.99601 -32.005,0 0,50.005002 32.005,0 0,-50.005002 m -32.005,-12.995 32.005,0 0,-50.00601 -32.005,0 0,50.00601 z" style="fill:none;stroke:#00f;stroke-width:.01mm"/><path id="path3378-36" d="m 540.16985,12.933728 3.30201,0 0,-7.0019998 10.696,0 32.005,0 8.997,0 0,133.0000118 -8.997,0 -32.005,0 -10.696,0 0,-7.002 -3.30201,0 0,-6.995 3.30201,0 0,-7.005 -3.30201,0 0,-6.995 3.30201,0 0,-7.005 -3.30201,0 0,-6.995002 3.30201,0 0,-7.005 -3.30201,0 0,-6.995 3.30201,0 0,-7.005 -3.30201,0 0,-6.995 3.30201,0 0,-7.005 -3.30201,0 0,-6.99601 3.30201,0 0,-7.005 -3.30201,0 0,-6.99499 3.30201,0 0,-7.00501 -3.30201,0 0,-6.995 3.30201,0 0,-7.005 -3.30201,0 0,-6.995 m 46.00301,65.99601 -32.005,0 0,50.005002 32.005,0 0,-50.005002 m -32.005,-12.995 32.005,0 0,-50.00601 -32.005,0 0,50.00601 z" style="fill:none;stroke:#00f;stroke-width:.01mm"/><path id="path3378-1" d="m 1.7301488,147.35214 3.302,0 0,-7.002 10.6960002,0 32.005,0 8.997,0 0,133.00001 -8.997,0 -32.005,0 -10.6960002,0 0,-7.002 -3.302,0 0,-6.995 3.302,0 0,-7.005 -3.302,0 0,-6.995 3.302,0 0,-7.005 -3.302,0 0,-6.995 3.302,0 0,-7.005 -3.302,0 0,-6.995 3.302,0 0,-7.005 -3.302,0 0,-6.995 3.302,0 0,-7.005 -3.302,0 0,-6.996 3.302,0 0,-7.005 -3.302,0 0,-6.995 3.302,0 0,-7.00501 -3.302,0 0,-6.99499 3.302,0 0,-7.00501 -3.302,0 0,-6.995 m 46.0030002,65.99601 -32.005,0 0,50.005 32.005,0 0,-50.005 m -32.005,-12.995 32.005,0 0,-50.00601 -32.005,0 0,50.00601 z" style="fill:none;stroke:#00f;stroke-width:.01mm"/><path id="path3378-2-2" d="m 61.623979,147.35214 3.302,0 0,-7.002 10.696,0 32.005001,0 8.997,0 0,133.00001 -8.997,0 -32.005001,0 -10.696,0 0,-7.002 -3.302,0 0,-6.995 3.302,0 0,-7.005 -3.302,0 0,-6.995 3.302,0 0,-7.005 -3.302,0 0,-6.995 3.302,0 0,-7.005 -3.302,0 0,-6.995 3.302,0 0,-7.005 -3.302,0 0,-6.995 3.302,0 0,-7.005 -3.302,0 0,-6.996 3.302,0 0,-7.005 -3.302,0 0,-6.995 3.302,0 0,-7.00501 -3.302,0 0,-6.99499 3.302,0 0,-7.00501 -3.302,0 0,-6.995 m 46.003001,65.99601 -32.005001,0 0,50.005 32.005001,0 0,-50.005 m -32.005001,-12.995 32.005001,0 0,-50.00601 -32.005001,0 0,50.00601 z" style="fill:none;stroke:#00f;stroke-width:.01mm"/><path id="path3378-3-9" d="m 480.8808,147.35214 3.302,0 0,-7.002 10.696,0 32.00498,0 8.99702,0 0,133.00001 -8.99702,0 -32.00498,0 -10.696,0 0,-7.002 -3.302,0 0,-6.995 3.302,0 0,-7.005 -3.302,0 0,-6.995 3.302,0 0,-7.005 -3.302,0 0,-6.995 3.302,0 0,-7.005 -3.302,0 0,-6.995 3.302,0 0,-7.005 -3.302,0 0,-6.995 3.302,0 0,-7.005 -3.302,0 0,-6.99601 3.302,0 0,-7.005 -3.302,0 0,-6.99499 3.302,0 0,-7.00501 -3.302,0 0,-6.995 3.302,0 0,-7.005 -3.302,0 0,-6.995 m 46.00298,65.99601 -32.00498,0 0,50.005 32.00498,0 0,-50.005 m -32.00498,-12.995 32.00498,0 0,-50.00601 -32.00498,0 0,50.00601 z" style="fill:none;stroke:#00f;stroke-width:.01mm"/><path id="path3378-7-3" d="m 420.98698,147.35214 3.302,0 0,-7.002 10.69599,0 32.00502,0 8.99699,0 0,133.00001 -8.99699,0 -32.00502,0 -10.69599,0 0,-7.002 -3.302,0 0,-6.995 3.302,0 0,-7.005 -3.302,0 0,-6.995 3.302,0 0,-7.005 -3.302,0 0,-6.995 3.302,0 0,-7.005 -3.302,0 0,-6.995 3.302,0 0,-7.005 -3.302,0 0,-6.995 3.302,0 0,-7.005 -3.302,0 0,-6.99601 3.302,0 0,-7.005 -3.302,0 0,-6.99499 3.302,0 0,-7.00501 -3.302,0 0,-6.995 3.302,0 0,-7.005 -3.302,0 0,-6.995 m 46.00301,65.99601 -32.00502,0 0,50.005 32.00502,0 0,-50.005 m -32.00502,-12.995 32.00502,0 0,-50.00601 -32.00502,0 0,50.00601 z" style="fill:none;stroke:#00f;stroke-width:.01mm"/><path id="path3378-5-1" d="m 361.09315,147.35214 3.302,0 0,-7.002 10.69603,0 32.00499,0 8.99702,0 0,133.00001 -8.99702,0 -32.00499,0 -10.69603,0 0,-7.002 -3.302,0 0,-6.995 3.302,0 0,-7.005 -3.302,0 0,-6.995 3.302,0 0,-7.005 -3.302,0 0,-6.995 3.302,0 0,-7.005 -3.302,0 0,-6.995 3.302,0 0,-7.005 -3.302,0 0,-6.995 3.302,0 0,-7.005 -3.302,0 0,-6.99601 3.302,0 0,-7.005 -3.302,0 0,-6.99499 3.302,0 0,-7.00501 -3.302,0 0,-6.995 3.302,0 0,-7.005 -3.302,0 0,-6.995 m 46.00302,65.99601 -32.00499,0 0,50.005 32.00499,0 0,-50.005 m -32.00499,-12.995 32.00499,0 0,-50.00601 -32.00499,0 0,50.00601 z" style="fill:none;stroke:#00f;stroke-width:.01mm"/><path id="path3378-9-9" d="m 301.1993,147.35214 3.302,0 0,-7.002 10.696,0 32.00502,0 8.99699,0 0,133.00001 -8.99699,0 -32.00502,0 -10.696,0 0,-7.002 -3.302,0 0,-6.995 3.302,0 0,-7.005 -3.302,0 0,-6.995 3.302,0 0,-7.005 -3.302,0 0,-6.995 3.302,0 0,-7.005 -3.302,0 0,-6.995 3.302,0 0,-7.005 -3.302,0 0,-6.995 3.302,0 0,-7.005 -3.302,0 0,-6.99601 3.302,0 0,-7.005 -3.302,0 0,-6.99499 3.302,0 0,-7.00501 -3.302,0 0,-6.995 3.302,0 0,-7.005 -3.302,0 0,-6.995 m 46.00302,65.99601 -32.00502,0 0,50.005 32.00502,0 0,-50.005 m -32.00502,-12.995 32.00502,0 0,-50.00601 -32.00502,0 0,50.00601 z" style="fill:none;stroke:#00f;stroke-width:.01mm"/><path id="path3378-22-4" d="m 241.30548,147.35214 3.302,0 0,-7.002 10.69601,0 32.005,0 8.99699,0 0,133.00001 -8.99699,0 -32.005,0 -10.69601,0 0,-7.002 -3.302,0 0,-6.995 3.302,0 0,-7.005 -3.302,0 0,-6.995 3.302,0 0,-7.005 -3.302,0 0,-6.995 3.302,0 0,-7.005 -3.302,0 0,-6.995 3.302,0 0,-7.005 -3.302,0 0,-6.995 3.302,0 0,-7.005 -3.302,0 0,-6.99601 3.302,0 0,-7.005 -3.302,0 0,-6.99499 3.302,0 0,-7.00501 -3.302,0 0,-6.995 3.302,0 0,-7.005 -3.302,0 0,-6.995 m 46.00301,65.99601 -32.005,0 0,50.005 32.005,0 0,-50.005 m -32.005,-12.995 32.005,0 0,-50.00601 -32.005,0 0,50.00601 z" style="fill:none;stroke:#00f;stroke-width:.01mm"/><path id="path3378-8-7" d="m 181.41165,147.35214 3.302,0 0,-7.002 10.696,0 32.005,0 8.997,0 0,133.00001 -8.997,0 -32.005,0 -10.696,0 0,-7.002 -3.302,0 0,-6.995 3.302,0 0,-7.005 -3.302,0 0,-6.995 3.302,0 0,-7.005 -3.302,0 0,-6.995 3.302,0 0,-7.005 -3.302,0 0,-6.995 3.302,0 0,-7.005 -3.302,0 0,-6.995 3.302,0 0,-7.005 -3.302,0 0,-6.99601 3.302,0 0,-7.005 -3.302,0 0,-6.99499 3.302,0 0,-7.00501 -3.302,0 0,-6.995 3.302,0 0,-7.005 -3.302,0 0,-6.995 m 46.003,65.99601 -32.005,0 0,50.005 32.005,0 0,-50.005 m -32.005,-12.995 32.005,0 0,-50.00601 -32.005,0 0,50.00601 z" style="fill:none;stroke:#00f;stroke-width:.01mm"/><path id="path3378-97-8" d="m 121.51782,147.35214 3.302,0 0,-7.002 10.696,0 32.005,0 8.997,0 0,133.00001 -8.997,0 -32.005,0 -10.696,0 0,-7.002 -3.302,0 0,-6.995 3.302,0 0,-7.005 -3.302,0 0,-6.995 3.302,0 0,-7.005 -3.302,0 0,-6.995 3.302,0 0,-7.005 -3.302,0 0,-6.995 3.302,0 0,-7.005 -3.302,0 0,-6.995 3.302,0 0,-7.005 -3.302,0 0,-6.99601 3.302,0 0,-7.005 -3.302,0 0,-6.99499 3.302,0 0,-7.00501 -3.302,0 0,-6.995 3.302,0 0,-7.005 -3.302,0 0,-6.995 m 46.003,65.99601 -32.005,0 0,50.005 32.005,0 0,-50.005 m -32.005,-12.995 32.005,0 0,-50.00601 -32.005,0 0,50.00601 z" style="fill:none;stroke:#00f;stroke-width:.01mm"/><path id="path3378-36-4" d="m 540.77462,147.35214 3.302,0 0,-7.002 10.696,0 32.00502,0 8.99699,0 0,133.00001 -8.99699,0 -32.00502,0 -10.696,0 0,-7.002 -3.302,0 0,-6.995 3.302,0 0,-7.005 -3.302,0 0,-6.995 3.302,0 0,-7.005 -3.302,0 0,-6.995 3.302,0 0,-7.005 -3.302,0 0,-6.995 3.302,0 0,-7.005 -3.302,0 0,-6.995 3.302,0 0,-7.005 -3.302,0 0,-6.99601 3.302,0 0,-7.005 -3.302,0 0,-6.99499 3.302,0 0,-7.00501 -3.302,0 0,-6.995 3.302,0 0,-7.005 -3.302,0 0,-6.995 m 46.00302,65.99601 -32.00502,0 0,50.005 32.00502,0 0,-50.005 m -32.00502,-12.995 32.00502,0 0,-50.00601 -32.00502,0 0,50.00601 z" style="fill:none;stroke:#00f;stroke-width:.01mm"/></g></svg>