<svg xmlns="http://www.w3.org/2000/svg" xmlns:svg="http://www.w3.org/2000/svg" id="svg4495" width="2256" height="1104" version="1.1" viewBox="0 0 596.9 292.1"><metadata id="metadata4492"/><g id="layer1" transform="translate(0,-4.8999832)"><path id="path5601" d="M 2.0684527,153.54165 V 6.5416498 h 3.0480002 2.805 33.1950001 2.804 17.646 2.805 3.697 29.547998 2.804009 17.646 2.804 3.69799 29.54801 2.80499 17.64501 2.804 3.69799 29.54801 2.80499 17.64499 2.80402 3.69799 V 153.54165 h -3.69799 -2.80402 -17.64499 -2.80499 -29.54801 -3.69799 -2.804 -17.64501 -2.80499 -29.54801 -3.69799 -2.804 -17.646 -2.804009 -29.547998 -3.697 -2.805 -17.646 -2.804 -33.1950001 -2.805 -3.0480002 M 118.11646,83.63965 v 6.805 h 2.754 v -6.805 h -2.754 m 0,-14 v 6.805 h 2.754 v -6.805 h -2.754 m 0,34.804 h 2.754 v -6.804 h -2.754 v 6.804 m 0,-48.804 v 6.805 h 2.754 v -6.805 h -2.754 m 0,62.805 h 2.754 v -6.805 h -2.754 v 6.805 m 0,-76.805 v 6.805 h 2.754 v -6.805 h -2.754 m 0,90.805 h 2.754 v -6.805 h -2.754 v 6.805 m 0,-104.806 v 6.804999 h 2.754 V 27.63865 h -2.754 m 0,118.806 h 2.754 v -6.805 h -2.754 v 6.805 m 0,-132.806 v 6.805 h 2.754 v -6.805 h -2.754 m 115.754,0 h -2.80402 v 6.805 h 2.80402 v -6.805 m 0,14 h -2.80402 v 6.804999 h 2.80402 V 27.63865 m 0,14.001 h -2.80402 v 6.805 h 2.80402 v -6.805 m 0,14 h -2.80402 v 6.805 h 2.80402 v -6.805 m 0,14 h -2.80402 v 6.805 h 2.80402 v -6.805 m 0,14 h -2.80402 v 6.805 h 2.80402 v -6.805 m 0,14 h -2.80402 v 6.804 h 2.80402 v -6.804 m 0,14 h -2.80402 v 6.805 h 2.80402 v -6.805 m 0,14 h -2.80402 v 6.805 h 2.80402 v -6.805 m 0,14 h -2.80402 v 6.805 h 2.80402 v -6.805 m -20.44901,-126.001 h -2.80499 v 6.805 h 2.80499 v -6.805 m 0,14 h -2.80499 v 6.804999 h 2.80499 V 27.63865 m 0,14.001 h -2.80499 v 6.805 h 2.80499 v -6.805 m 0,14 h -2.80499 v 6.805 h 2.80499 v -6.805 m 0,14 h -2.80499 v 6.805 h 2.80499 v -6.805 m 0,14 h -2.80499 v 6.805 h 2.80499 v -6.805 m 0,14 h -2.80499 v 6.804 h 2.80499 v -6.804 m 0,14 h -2.80499 v 6.805 h 2.80499 v -6.805 m 0,14 h -2.80499 v 6.805 h 2.80499 v -6.805 m -113.00099,20.805 v -6.805 h -2.804009 v 6.805 h 2.804009 M 61.616453,20.44365 h 2.755 v -6.805 h -2.755 v 6.805 m 151.804997,119.196 h -2.80499 v 6.805 h 2.80499 v -6.805 M 61.616453,34.443649 h 2.755 V 27.63865 h -2.755 v 6.804999 M 174.61646,20.44365 h 2.754 v -6.805 h -2.754 v 6.805 m -113.000007,28.001 h 2.755 v -6.805 h -2.755 v 6.805 M 174.61646,34.443649 h 2.754 V 27.63865 h -2.754 v 6.804999 M 61.616453,62.44465 h 2.755 v -6.805 h -2.755 v 6.805 m 113.000007,-14 h 2.754 v -6.805 h -2.754 v 6.805 m -113.000007,28 h 2.755 v -6.805 h -2.755 v 6.805 m 113.000007,-14 h 2.754 v -6.805 h -2.754 v 6.805 m -113.000007,28 h 2.755 v -6.805 h -2.755 v 6.805 m 113.000007,-14 h 2.754 v -6.805 h -2.754 v 6.805 m -113.000007,27.999 h 2.755 v -6.804 h -2.755 v 6.804 m 113.000007,-13.999 h 2.754 v -6.805 h -2.754 v 6.805 m -113.000007,28 h 2.755 v -6.805 h -2.755 v 6.805 m 113.000007,-14.001 h 2.754 v -6.804 h -2.754 v 6.804 m -113.000007,28.001 h 2.755 v -6.805 h -2.755 v 6.805 m 113.000007,-14 h 2.754 v -6.805 h -2.754 v 6.805 m -113.000007,28 h 2.755 v -6.805 h -2.755 v 6.805 m 113.000007,-14 h 2.754 v -6.805 h -2.754 v 6.805 m 0,14 h 2.754 v -6.805 h -2.754 v 6.805 m -17.69501,-132.806 h -2.80499 v 6.805 h 2.80499 v -6.805 m 0,14 h -2.80499 v 6.804999 h 2.80499 V 27.63865 m 0,14.001 h -2.80499 v 6.805 h 2.80499 v -6.805 m 0,14 h -2.80499 v 6.805 h 2.80499 v -6.805 m 0,14 h -2.80499 v 6.805 h 2.80499 v -6.805 m 0,14 h -2.80499 v 6.805 h 2.80499 v -6.805 m 0,14 h -2.80499 v 6.804 h 2.80499 v -6.804 m 0,14 h -2.80499 v 6.805 h 2.80499 v -6.805 m 0,14 h -2.80499 v 6.805 h 2.80499 v -6.805 m 0,14 h -2.80499 v 6.805 h 2.80499 v -6.805 m -113.000997,-42 h -2.804 v 6.804 h 2.804 v -6.804 m -2.804,-21.195 h 2.804 v -6.805 h -2.804 v 6.805 m 0,14 h 2.804 v -6.805 h -2.804 v 6.805 m 2.804,21.195 h -2.804 v 6.805 h 2.804 v -6.805 m -2.804,-49.195 h 2.804 v -6.805 h -2.804 v 6.805 m 2.804,63.195 h -2.804 v 6.805 h 2.804 v -6.805 m -2.804,-77.195 h 2.804 v -6.805 h -2.804 v 6.805 m 2.804,91.195 h -2.804 v 6.805 h 2.804 v -6.805 m 56.500007,-126.001 h -2.804009 v 6.805 h 2.804009 v -6.805 m 0,14 h -2.804009 v 6.804999 h 2.804009 V 27.63865 m 0,14.001 h -2.804009 v 6.805 h 2.804009 v -6.805 m 0,14 h -2.804009 v 6.805 h 2.804009 v -6.805 m 0,14 h -2.804009 v 6.805 h 2.804009 v -6.805 m 0,14 h -2.804009 v 6.805 h 2.804009 v -6.805 m 0,14 h -2.804009 v 6.804 h 2.804009 v -6.804 m 0,14 h -2.804009 v 6.805 h 2.804009 v -6.805 m 0,14 h -2.804009 v 6.805 h 2.804009 v -6.805 M 43.920453,13.63865 h -2.804 v 6.805 h 2.804 v -6.805 m 0,14 h -2.804 v 6.804999 h 2.804 V 27.63865 m -35.9990001,-14 h -2.805 v 6.805 h 2.805 v -6.805 m 0,14 h -2.805 v 6.804999 h 2.805 V 27.63865 m 0,14.001 h -2.805 v 6.805 h 2.805 v -6.805 m 0,14 h -2.805 v 6.805 h 2.805 v -6.805 m 0,14 h -2.805 v 6.805 h 2.805 v -6.805 m 0,14 h -2.805 v 6.805 h 2.805 v -6.805 m -2.805,62.805 h 2.805 v -6.805 h -2.805 v 6.805 m 0,-14 h 2.805 v -6.805 h -2.805 v 6.805 m 2.805,-34.805 h -2.805 v 6.804 h 2.805 v -6.804 m 0,14 h -2.805 v 6.805 h 2.805 z" style="fill:none;stroke:#00f;stroke-width:.038;stroke-miterlimit:4;stroke-dasharray:none"/><path id="path5616" d="m -93.500004,121.29763 h 2.488003 v -7.005 h -2.488003 v -6.995 h 2.488003 v -7.005 h -2.488003 v -6.994998 h 2.488003 v -7.003003 h 57.512 V 233.29463 h -57.512 v -7.00201 h -2.488003 v -6.99499 h 2.488003 v -7.00501 h -2.488003 v -6.99498 h 2.488003 v -7.005 h -2.488003 v -6.995 h 2.488003 v -7.005 h -2.488003 v -6.995 h 2.488003 v -7.005 h -2.488003 v -6.995 h 2.488003 v -7.005 h -2.488003 v -6.995 h 2.488003 v -7.005 h -2.488003 v -6.99501 h 2.488003 v -7.005 h -2.488003 z" style="fill:none;stroke:#00f;stroke-width:.01mm"/><path id="path6272" d="m 246.67857,43.056555 h 4.003 v -7.005 h -4.003 v -6.995 h 4.003 v -7.005 h -4.003 v -6.995 h 4.003 V 8.0535547 h 5.994 40.006 9.997 V 155.05355 h -9.997 -40.006 -5.994 v -7.00201 h -4.003 v -6.995 h 4.003 v -7.005 h -4.003 v -6.99498 h 4.003 v -7.00501 h -4.003 v -6.99499 h 4.003 v -7.00501 h -4.003 v -6.994989 h 4.003 v -7.00502 h -4.003 v -6.99499 h 4.003 v -7.004996 h -4.003 v -6.995 h 4.003 v -7.005 h -4.003 v -6.995 h 4.003 v -7.005 h -4.003 v -6.995 m 50.003,-24.005 h -40.006 v 60.005 h 40.006 v -60.005 m 0,66.999996 h -40.006 v 60.004989 h 40.006 z" style="fill:none;stroke:#00f;stroke-width:.01mm"/><path id="path6272-7" d="m 389.55358,43.056556 h 4.003 v -7.005 h -4.003 v -6.995001 h 4.003 v -7.005 h -4.003 v -6.995 h 4.003 V 8.0535547 h 5.994 40.00599 9.99701 V 155.05356 h -9.99701 -40.00599 -5.994 v -7.00201 h -4.003 v -6.995 h 4.003 v -7.005 h -4.003 v -6.99498 h 4.003 v -7.00502 h -4.003 v -6.99499 h 4.003 v -7.00501 h -4.003 v -6.994987 h 4.003 v -7.005021 h -4.003 v -6.994991 h 4.003 v -7.004995 h -4.003 v -6.995001 h 4.003 v -7.005 h -4.003 v -6.994998 h 4.003 v -7.005003 h -4.003 v -6.994998 m 50.00299,-24.005001 h -40.00599 v 60.005 h 40.00599 v -60.005 m 0,66.999996 h -40.00599 v 60.004999 h 40.00599 z" style="fill:none;stroke:#00f;stroke-width:.01mm"/><path id="path6272-8" d="m 318.11605,43.056556 h 4.003 v -7.005 h -4.003 v -6.995001 h 4.003 v -7.005 h -4.003 v -6.995 h 4.003 V 8.0535547 h 5.994 40.00599 9.99701 V 155.05356 h -9.99701 -40.00599 -5.994 v -7.00201 h -4.003 v -6.995 h 4.003 v -7.005 h -4.003 v -6.99498 h 4.003 v -7.00502 h -4.003 v -6.99499 h 4.003 v -7.00501 h -4.003 v -6.994987 h 4.003 v -7.005021 h -4.003 v -6.994991 h 4.003 v -7.004995 h -4.003 v -6.995001 h 4.003 v -7.005 h -4.003 v -6.994998 h 4.003 v -7.005003 h -4.003 v -6.994998 m 50.00299,-24.005001 h -40.00599 v 60.005 h 40.00599 v -60.005 m 0,66.999996 h -40.00599 v 60.004999 h 40.00599 z" style="fill:none;stroke:#00f;stroke-width:.01mm"/><path id="path6272-9" d="m 460.9911,43.056556 h 4.003 v -7.005 h -4.003 v -6.995001 h 4.003 v -7.005 h -4.003 v -6.995 h 4.003 V 8.0535547 h 5.994 40.006 9.997 V 155.05356 h -9.997 -40.006 -5.994 v -7.00201 h -4.003 v -6.995 h 4.003 v -7.005 h -4.003 v -6.99498 h 4.003 v -7.00502 h -4.003 v -6.99499 h 4.003 v -7.00501 h -4.003 v -6.994987 h 4.003 v -7.005021 h -4.003 v -6.994991 h 4.003 v -7.004995 h -4.003 v -6.995001 h 4.003 v -7.005 h -4.003 v -6.994998 h 4.003 v -7.005003 h -4.003 v -6.994998 m 50.003,-24.005001 h -40.006 v 60.005 h 40.006 v -60.005 m 0,66.999996 h -40.006 v 60.004999 h 40.006 z" style="fill:none;stroke:#00f;stroke-width:.01mm"/><path id="path6272-81" d="m 532.42857,43.056557 h 4.003 v -7.005 h -4.003 v -6.995002 h 4.003 v -7.005 h -4.003 v -6.995 h 4.003 V 8.0535547 h 5.994 40.006 9.997 V 155.05356 h -9.997 -40.006 -5.994 v -7.00201 h -4.003 v -6.995 h 4.003 v -7.005 h -4.003 v -6.99498 h 4.003 v -7.00501 h -4.003 v -6.99499 h 4.003 v -7.00501 h -4.003 v -6.994994 h 4.003 v -7.005028 h -4.003 v -6.99499 h 4.003 v -7.004991 h -4.003 v -6.995001 h 4.003 v -7.005 h -4.003 v -6.994998 h 4.003 v -7.005003 h -4.003 v -6.994998 m 50.003,-24.005002 h -40.006 v 60.005001 h 40.006 V 19.051555 m 0,66.999993 h -40.006 v 60.005002 h 40.006 z" style="fill:none;stroke:#00f;stroke-width:.01mm"/><path id="path6272-81-5" d="m 555.50897,159.50853 v 4.003 h 7.005 v -4.003 h 6.99501 v 4.003 h 7.005 v -4.003 h 6.995 v 4.003 h 7.003 v 5.994 40.006 9.997 H 443.51197 v -9.997 -40.006 -5.994 h 7.00201 v -4.003 h 6.995 v 4.003 h 7.005 v -4.003 h 6.99498 v 4.003 h 7.00501 v -4.003 h 6.99499 v 4.003 h 7.00501 v -4.003 h 6.99499 v 4.003 h 7.00503 v -4.003 h 6.99499 v 4.003 h 7.00499 v -4.003 h 6.995 v 4.003 h 7.005 v -4.003 h 6.995 v 4.003 h 7.005 v -4.003 h 6.995 m 24.00501,50.003 v -40.006 h -60.00501 v 40.006 h 60.00501 m -67,0 v -40.006 h -60.005 v 40.006 z" style="fill:none;stroke:#00f;stroke-width:.01mm"/><path id="path6272-81-5-7" d="m 555.38618,223.74189 v 4.003 h 7.005 v -4.003 h 6.99501 v 4.003 h 7.005 v -4.003 h 6.995 v 4.003 h 7.003 v 5.994 40.006 9.997 H 443.38917 v -9.997 -40.006 -5.994 h 7.00201 v -4.003 h 6.995 v 4.003 h 7.005 v -4.003 h 6.99498 v 4.003 h 7.00501 v -4.003 h 6.995 v 4.003 h 7.00501 v -4.003 h 6.99498 v 4.003 h 7.00504 v -4.003 h 6.99499 v 4.003 h 7.00499 v -4.003 h 6.99499 v 4.003 h 7.005 v -4.003 h 6.99501 v 4.003 h 7.005 v -4.003 h 6.995 m 24.00501,50.003 v -40.006 h -60.00502 v 40.006 h 60.00502 m -67,0 v -40.006 h -60.00501 v 40.006 z" style="fill:none;stroke:#00f;stroke-width:.01mm"/><path id="path6272-81-5-9" d="m 404.07549,223.91073 v 4.003 h 7.005 v -4.003 h 6.99501 v 4.003 h 7.005 v -4.003 h 6.995 v 4.003 h 7.003 v 5.994 40.006 9.997 H 292.07849 v -9.997 -40.006 -5.994 h 7.00201 v -4.003 h 6.995 v 4.003 h 7.005 v -4.003 h 6.99498 v 4.003 h 7.00501 v -4.003 h 6.99499 v 4.003 h 7.00501 v -4.003 h 6.99499 v 4.003 h 7.00503 v -4.003 h 6.99499 v 4.003 h 7.00499 v -4.003 h 6.995 v 4.003 h 7.005 v -4.003 h 6.995 v 4.003 h 7.005 v -4.003 h 6.995 m 24.00501,50.003 v -40.006 h -60.00501 v 40.006 h 60.00501 m -67,0 v -40.006 h -60.005 v 40.006 z" style="fill:none;stroke:#00f;stroke-width:.01mm"/><path id="path6272-81-5-2" d="m 403.62022,159.28691 v 4.003 h 7.005 v -4.003 h 6.99501 v 4.003 h 7.005 v -4.003 h 6.995 v 4.003 h 7.003 v 5.994 40.006 9.997 H 291.62322 v -9.997 -40.006 -5.994 h 7.00201 v -4.003 h 6.995 v 4.003 h 7.005 v -4.003 h 6.99498 v 4.003 h 7.00501 v -4.003 h 6.99499 v 4.003 h 7.00501 v -4.003 h 6.99499 v 4.003 h 7.00503 v -4.003 h 6.99499 v 4.003 h 7.00499 v -4.003 h 6.995 v 4.003 h 7.005 v -4.003 h 6.995 v 4.003 h 7.005 v -4.003 h 6.995 m 24.00501,50.003 v -40.006 h -60.00501 v 40.006 h 60.00501 m -67,0 v -40.006 h -60.005 v 40.006 z" style="fill:none;stroke:#00f;stroke-width:.01mm"/></g></svg>