<svg xmlns="http://www.w3.org/2000/svg" xmlns:svg="http://www.w3.org/2000/svg" id="svg4495" width="2115" height="1035" version="1.1" viewBox="0 0 596.9 292.1"><metadata id="metadata4492"/><g id="layer1" transform="translate(0,-4.8999832)"><path id="path3550" d="m 236.68651,140.14126 -3.448,0 -3.054,0 -17.446,0 -3.054,0 -32.94501,0 -9.9e-4,0 -3.054,0 -17.445,0 -3.055,0 -32.945,0 -3.05501,0 -17.444999,0 -3.055,0 -32.945,0 -10e-4,0 -3.053998,0 -17.444999,0 -3.055001,0 -10e-4,0 -32.9440016,0 -0.001,0 -3.054001,0 -9.99e-4,0 -2.997,0 0,-133.0000079 2.997,0 9.99e-4,0 0,0.002 3.055001,0 0,-0.002 32.9440016,0 10e-4,0 0,0.002 3.055001,0 0,-0.002 17.444999,0 0,0.002 3.055008,0 0,-0.002 32.945,0 0,0.002 3.055,0 0,-0.002 17.444999,0 0,0.002 3.055,0 0,-0.002 32.945,0 0,0.002 3.055,0 0,-0.002 17.445,0 0,0.002 3.054,0 0,-0.002 9.9e-4,0 32.94501,0 0,0.002 3.054,0 0,-0.002 17.446,0 0,0.002 3.054,0 0,-0.002 3.448,0 0,133.0000079 m -116.447,-14.003 -3.05501,0 0,7.00499 3.05501,0 0,-7.00499 m -3.05501,-20.99401 3.05501,0 0,-7.004988 -3.05501,0 0,7.004988 m 0,14 3.05501,0 0,-7.00499 -3.05501,0 0,7.00499 M 99.739501,14.138254 l -3.055,0 0,7.004997 3.055,0 0,-7.004997 m 17.444999,77.005998 3.05501,0 0,-7.005 -3.05501,0 0,7.005 m -17.444999,-63.004998 -3.055,0 0,7.004 3.055,0 0,-7.004 m 17.444999,49.004998 3.05501,0 0,-7.006 -3.05501,0 0,7.006 m -17.444999,-35.006 -3.055,0 0,7.00599 3.055,0 0,-7.00599 m 17.444999,21.006 3.05501,0 0,-7.006 -3.05501,0 0,7.006 m -17.444999,-7.006 -3.055,0 0,7.006 3.055,0 0,-7.006 m 17.444999,-6.99401 3.05501,0 0,-7.00599 -3.05501,0 0,7.00599 m -17.444999,20.99401 -3.055,0 0,7.006 3.055,0 0,-7.006 m 17.444999,-34.994998 3.05501,0 0,-7.004 -3.05501,0 0,7.004 m -17.444999,48.995998 -3.055,0 0,7.005 3.055,0 0,-7.005 m 17.444999,-62.996001 3.05501,0 0,-7.004997 -3.05501,0 0,7.004997 m -17.444999,76.996011 -3.055,0 0,7.004988 3.055,0 0,-7.004988 m 53.445009,35.003988 3.055,0 0,-7.00499 -3.055,0 0,7.00499 m -53.445009,-21.00399 -3.055,0 0,7.00499 3.055,0 0,-7.00499 m 53.445009,7.00499 3.055,0 0,-7.00499 -3.055,0 0,7.00499 m -53.445009,6.99401 -3.055,0 0,7.00499 3.055,0 0,-7.00499 m 53.445009,-20.99401 3.055,0 0,-7.004988 -3.055,0 0,7.004988 m -89.445009,-91.005996 -3.055001,0 0,7.004997 3.055001,0 0,-7.004997 m 89.445009,77.005998 3.055,0 0,-7.005 -3.055,0 0,7.005 m -89.445009,-63.004998 -3.055001,0 0,7.004 3.055001,0 0,-7.004 m 89.445009,49.004998 3.055,0 0,-7.006 -3.055,0 0,7.006 m -89.445009,-35.006 -3.055001,0 0,7.00599 3.055001,0 0,-7.00599 m 89.445009,21.006 3.055,0 0,-7.006 -3.055,0 0,7.006 m -89.445009,-7.006 -3.055001,0 0,7.006 3.055001,0 0,-7.006 m 89.445009,-34.995001 3.055,0 0,-7.004997 -3.055,0 0,7.004997 m 3.055,20.995001 -3.055,0 0,7.00599 3.055,0 0,-7.00599 m 0,-13.998998 -3.055,0 0,7.004 3.055,0 0,-7.004 m 17.445,105.003996 3.054,0 0,-7.00499 -3.054,0 0,7.00499 M 63.739501,70.138252 l -3.055001,0 0,7.006 3.055001,0 0,-7.006 m 109.945009,49.005998 3.054,0 0,-7.00499 -3.054,0 0,7.00499 m -133.50101,13.999 10e-4,0 3.055001,0 0,-7.00499 -3.055001,0 -10e-4,0 0,7.00499 m 133.50101,-41.998998 3.054,0 0,-7.005 -3.054,0 0,7.005 m 0,13.999998 3.054,0 9.9e-4,0 0,-7.004988 -9.9e-4,0 -3.054,0 0,7.004988 m -169.5010116,27.999 9.99e-4,0 3.054001,0 0,-7.00499 -3.054001,0 -9.99e-4,0 0,7.00499 M 173.68451,63.144252 l 3.054,0 0,-7.006 -3.054,0 0,7.006 m 0,14 3.054,0 0,-7.006 -3.054,0 0,7.006 M 7.2394984,119.14425 l 0,-7.00499 -3.055001,0 0,7.00499 3.054001,0 10e-4,0 M 173.68451,35.143254 l 3.054,0 0,-7.004 -3.054,0 0,7.004 m 0,14.000988 3.054,0 0,-7.00599 -3.054,0 0,7.00599 M 4.1844974,105.14425 l 3.055001,0 0,-7.004988 -3.055001,0 0,7.004988 M 173.68451,21.143251 l 3.054,0 0,-7.004997 -3.054,0 0,7.004997 m -109.945009,62.996001 -3.055001,0 0,7.005 3.055001,0 0,-7.005 m 145.945009,49.003998 3.054,0 0,-7.00499 -3.054,0 0,7.00499 M 4.1844974,77.144252 l 3.055001,0 0,-7.006 -3.055001,0 0,7.006 m 0,14 3.055001,0 0,-7.005 -3.055001,0 0,7.005 m 205.5000126,27.999998 3.054,0 0,-7.00499 -3.054,0 0,7.00499 m 0,-14 3.054,0 0,-7.004988 -3.054,0 0,7.004988 M 4.1844974,49.144242 l 3.055001,0 0,-7.00599 -3.055001,0 0,7.00599 m 0,14.00001 3.055001,0 0,-7.006 -3.055001,0 0,7.006 m 205.5000126,28 3.054,0 0,-7.005 -3.054,0 0,7.005 M 4.1844974,35.143254 l 3.055001,0 0,-7.004 -3.055001,0 0,7.004 m 205.5000126,42.000998 3.054,0 0,-7.006 -3.054,0 0,7.006 M 4.1844974,21.143251 l 3.055001,0 0,-7.004997 -3.055001,0 0,7.004997 m 205.5000126,42.001001 3.054,0 0,-7.006 -3.054,0 0,7.006 M 40.1845,119.14425 l 3.055001,0 0,-7.00499 -3.055001,0 0,7.00499 m 169.50001,-70.000008 3.054,0 0,-7.00599 -3.054,0 0,7.00599 M 40.1845,105.14425 l 3.055001,0 0,-7.004988 -3.055001,0 0,7.004988 m 169.50001,-70.000996 3.054,0 0,-7.004 -3.054,0 0,7.004 M 40.1845,91.144252 l 3.055001,0 0,-7.005 -3.055001,0 0,7.005 m 169.50001,-70.001001 3.054,0 0,-7.004997 -3.054,0 0,7.004997 M 40.1845,77.144252 l 3.055001,0 0,-7.006 -3.055001,0 0,7.006 m 190.00001,41.999998 3.054,0 0,-7.00499 -3.054,0 0,7.00499 M 40.1845,63.144252 l 3.055001,0 0,-7.006 -3.055001,0 0,7.006 m 193.05401,62.994008 -3.054,0 0,7.00499 3.054,0 0,-7.00499 m -3.054,-20.99401 3.054,0 0,-7.004988 -3.054,0 0,7.004988 m -166.445009,-7.004988 -3.055001,0 0,7.004988 3.055001,0 0,-7.004988 m 166.445009,-6.99501 3.054,0 0,-7.005 -3.054,0 0,7.005 m -166.445009,20.995008 -3.055001,0 0,7.00499 3.054001,0 10e-4,0 0,-7.00499 m 166.445009,-34.995008 3.054,0 0,-7.006 -3.054,0 0,7.006 m -166.446009,48.994008 -3.054001,0 0,7.00499 3.054001,0 0,-7.00499 m 166.446009,-62.994008 3.054,0 0,-7.006 -3.054,0 0,7.006 M 43.239501,14.138254 l -3.055001,0 0,7.004997 3.055001,0 0,-7.004997 m 186.945009,35.005988 3.054,0 0,-7.00599 -3.054,0 0,7.00599 M 43.239501,28.139254 l -3.055001,0 0,7.004 3.055001,0 0,-7.004 m 186.945009,7.004 3.054,0 0,-7.004 -3.054,0 0,7.004 m 0,-14.000003 3.054,0 0,-7.004997 -3.054,0 0,7.004997 m -186.945009,20.995001 -3.055001,0 0,7.00599 3.055001,0 0,-7.00599 z" style="fill:none;stroke:#00f;stroke-width:.01mm"/><path id="path3550-5" d="m 236.36407,274.64032 -3.448,0 -3.054,0 -17.446,0 -3.054,0 -32.94501,0 -0.001,0 -3.054,0 -17.445,0 -3.055,0 -32.945,0 -3.05501,0 -17.445008,0 -3.054995,0 -32.945001,0 -0.0011,0 -3.053998,0 -17.445,0 -3.054999,0 -0.0011,0 -32.9440021,0 -9.878e-4,0 -3.054001,0 -9.878e-4,0 -2.99699986,0 0,-133.00001 2.99699986,0 9.878e-4,0 0,0.002 3.0550009,0 0,-0.002 32.944001,0 0.0011,0 0,0.002 3.054999,0 0,-0.002 17.445,0 0,0.002 3.055008,0 0,-0.002 32.945001,0 0,0.002 3.054994,0 0,-0.002 17.445008,0 0,0.002 3.055,0 0,-0.002 32.945,0 0,0.002 3.05501,0 0,-0.002 17.445,0 0,0.002 3.054,0 0,-0.002 0.001,0 32.94502,0 0,0.002 3.054,0 0,-0.002 17.446,0 0,0.002 3.054,0 0,-0.002 3.448,0 0,133.00001 m -116.44701,-14.003 -3.055,0 0,7.00499 3.055,0 0,-7.00499 m -3.055,-20.99401 3.055,0 0,-7.00499 -3.055,0 0,7.00499 m 0,14 3.055,0 0,-7.00499 -3.055,0 0,7.00499 m -17.445048,-105.006 -3.055,0 0,7.005 3.055,0 0,-7.005 m 17.445008,77.006 3.055,0 0,-7.005 -3.055,0 0,7.005 m -17.445008,-63.005 -3.055,0 0,7.004 3.055,0 0,-7.004 m 17.445008,49.005 3.055,0 0,-7.006 -3.055,0 0,7.006 m -17.445008,-35.006 -3.055,0 0,7.00599 3.055,0 0,-7.00599 m 17.445008,21.006 3.055,0 0,-7.006 -3.055,0 0,7.006 m -17.445008,-7.006 -3.055,0 0,7.006 3.055,0 0,-7.006 m 17.445008,-6.99401 3.055,0 0,-7.00599 -3.055,0 0,7.00599 m -17.445008,20.99401 -3.055,0 0,7.006 3.055,0 0,-7.006 m 17.445008,-34.995 3.055,0 0,-7.004 -3.055,0 0,7.004 m -17.445008,48.996 -3.055,0 0,7.005 3.055,0 0,-7.005 m 17.445008,-62.996 3.055,0 0,-7.005 -3.055,0 0,7.005 m -17.445008,76.99601 -3.055,0 0,7.00499 3.055,0 0,-7.00499 m 53.445008,35.00399 3.05501,0 0,-7.00499 -3.05501,0 0,7.00499 m -53.445008,-21.00399 -3.055,0 0,7.00499 3.055,0 0,-7.00499 m 53.445008,7.00499 3.05501,0 0,-7.00499 -3.05501,0 0,7.00499 m -53.445008,6.99401 -3.055,0 0,7.00499 3.055,0 0,-7.00499 m 53.445008,-20.99401 3.05501,0 0,-7.00499 -3.05501,0 0,7.00499 m -89.444892,-91.006 -3.055003,0 0,7.005 3.055003,0 0,-7.005 m 89.445012,77.006 3.055,0 0,-7.005 -3.055,0 0,7.005 m -89.445012,-63.005 -3.055003,0 0,7.004 3.055003,0 0,-7.004 m 89.445012,49.005 3.055,0 0,-7.006 -3.055,0 0,7.006 m -89.445012,-35.006 -3.055003,0 0,7.00599 3.055003,0 0,-7.00599 m 89.445012,21.006 3.055,0 0,-7.006 -3.055,0 0,7.006 m -89.445012,-7.006 -3.055003,0 0,7.006 3.055003,0 0,-7.006 m 89.445012,-34.995 3.055,0 0,-7.005 -3.055,0 0,7.005 m 3.055,20.995 -3.055,0 0,7.00599 3.055,0 0,-7.00599 m 0,-13.999 -3.055,0 0,7.004 3.055,0 0,-7.004 m 17.445,105.004 3.054,0 0,-7.00499 -3.054,0 0,7.00499 m -109.945012,-63.005 -3.055003,0 0,7.006 3.055003,0 0,-7.006 m 109.945012,49.006 3.054,0 0,-7.00499 -3.054,0 0,7.00499 m -133.501016,13.999 0.0011,0 3.054999,0 0,-7.00499 -3.054999,0 -0.0011,0 0,7.00499 m 133.501016,-41.999 3.054,0 0,-7.005 -3.054,0 0,7.005 m 0,14 3.054,0 0.001,0 0,-7.00499 -0.001,0 -3.054,0 0,7.00499 m -169.5010178,27.999 9.877e-4,0 3.054001,0 0,-7.00499 -3.054001,0 -9.877e-4,0 0,7.00499 m 169.5010178,-69.999 3.054,0 0,-7.006 -3.054,0 0,7.006 m 0,14 3.054,0 0,-7.006 -3.054,0 0,7.006 m -166.4450179,42 0,-7.00499 -3.0550011,0 0,7.00499 3.0540009,0 9.878e-4,0 m 166.4450303,-84.001 3.054,0 0,-7.004 -3.054,0 0,7.004 m 0,14.00099 3.054,0 0,-7.00599 -3.054,0 0,7.00599 m -169.500019,56.00001 3.0550011,0 0,-7.00499 -3.0550011,0 0,7.00499 m 169.500019,-84.001 3.054,0 0,-7.005 -3.054,0 0,7.005 m -109.945012,62.996 -3.055003,0 0,7.005 3.055003,0 0,-7.005 m 145.945012,49.004 3.054,0 0,-7.00499 -3.054,0 0,7.00499 m -205.500019,-55.999 3.0550011,0 0,-7.006 -3.0550011,0 0,7.006 m 0,14 3.0550011,0 0,-7.005 -3.0550011,0 0,7.005 m 205.500019,28 3.054,0 0,-7.00499 -3.054,0 0,7.00499 m 0,-14 3.054,0 0,-7.00499 -3.054,0 0,7.00499 M 3.862051,183.6433 l 3.0550011,0 0,-7.00599 -3.0550011,0 0,7.00599 m 0,14.00001 3.0550011,0 0,-7.006 -3.0550011,0 0,7.006 m 205.500019,28 3.054,0 0,-7.005 -3.054,0 0,7.005 m -205.500019,-56.001 3.0550011,0 0,-7.004 -3.0550011,0 0,7.004 m 205.500019,42.001 3.054,0 0,-7.006 -3.054,0 0,7.006 m -205.500019,-56.001 3.0550011,0 0,-7.005 -3.0550011,0 0,7.005 m 205.500019,42.001 3.054,0 0,-7.006 -3.054,0 0,7.006 m -169.500014,56 3.054999,0 0,-7.00499 -3.054999,0 0,7.00499 m 169.500014,-70.00001 3.054,0 0,-7.00599 -3.054,0 0,7.00599 m -169.500014,56.00001 3.054999,0 0,-7.00499 -3.054999,0 0,7.00499 m 169.500014,-70.001 3.054,0 0,-7.004 -3.054,0 0,7.004 m -169.500014,56.001 3.054999,0 0,-7.005 -3.054999,0 0,7.005 m 169.500014,-70.001 3.054,0 0,-7.005 -3.054,0 0,7.005 m -169.500014,56.001 3.054999,0 0,-7.006 -3.054999,0 0,7.006 m 190.000014,42 3.054,0 0,-7.00499 -3.054,0 0,7.00499 m -190.000014,-56 3.054999,0 0,-7.006 -3.054999,0 0,7.006 m 193.054014,62.99401 -3.054,0 0,7.00499 3.054,0 0,-7.00499 m -3.054,-20.99401 3.054,0 0,-7.00499 -3.054,0 0,7.00499 m -166.445012,-7.00499 -3.055003,0 0,7.00499 3.055003,0 0,-7.00499 m 166.445012,-6.99501 3.054,0 0,-7.005 -3.054,0 0,7.005 m -166.445012,20.99501 -3.055003,0 0,7.00499 3.054001,0 0.0011,0 0,-7.00499 m 166.445014,-34.99501 3.054,0 0,-7.006 -3.054,0 0,7.006 m -166.446016,48.99401 -3.054001,0 0,7.00499 3.054001,0 0,-7.00499 m 166.446016,-62.99401 3.054,0 0,-7.006 -3.054,0 0,7.006 m -186.945115,-49.006 -3.054999,0 0,7.005 3.054999,0 0,-7.005 m 186.945015,35.00599 3.054,0 0,-7.00599 -3.054,0 0,7.00599 m -186.945015,-21.00499 -3.054999,0 0,7.004 3.054999,0 0,-7.004 m 186.945015,7.004 3.054,0 0,-7.004 -3.054,0 0,7.004 m 0,-14 3.054,0 0,-7.005 -3.054,0 0,7.005 m -186.945015,20.995 -3.054999,0 0,7.00599 3.054999,0 0,-7.00599 z" style="fill:none;stroke:#00f;stroke-width:.01mm"/><path id="path3550-0" d="m 473.43075,140.30252 -3.448,0 -3.054,0 -17.446,0 -3.054,0 -32.94501,0 -0.001,0 -3.054,0 -17.445,0 -3.055,0 -32.945,0 -3.05501,0 -17.445,0 -3.055,0 -32.945,0 -10e-4,0 -3.054,0 -17.445,0 -3.055,0 -10e-4,0 -32.944,0 -9.9e-4,0 -3.054,0 -9.8e-4,0 -2.997,0 0,-133.0000024 2.997,0 9.8e-4,0 0,0.002 3.055,0 0,-0.002 32.944,0 0.001,0 0,0.002 3.055,0 0,-0.002 17.445,0 0,0.002 3.05501,0 0,-0.002 32.945,0 0,0.002 3.055,0 0,-0.002 17.445,0 0,0.002 3.055,0 0,-0.002 32.945,0 0,0.002 3.05501,0 0,-0.002 17.445,0 0,0.002 3.054,0 0,-0.002 0.001,0 32.94502,0 0,0.002 3.054,0 0,-0.002 17.446,0 0,0.002 3.054,0 0,-0.002 3.448,0 0,133.0000024 m -116.44701,-14.003 -3.055,0 0,7.00499 3.055,0 0,-7.00499 m -3.055,-20.99401 3.055,0 0,-7.004983 -3.055,0 0,7.004983 m 0,14 3.055,0 0,-7.00499 -3.055,0 0,7.00499 m -17.44514,-105.005993 -3.055,0 0,7.005 3.055,0 0,-7.005 m 17.445,77.006 3.055,0 0,-7.005 -3.055,0 0,7.005 m -17.445,-63.005 -3.055,0 0,7.004 3.055,0 0,-7.004 m 17.445,49.005 3.055,0 0,-7.006 -3.055,0 0,7.006 m -17.445,-35.006 -3.055,0 0,7.00599 3.055,0 0,-7.00599 m 17.445,21.006 3.055,0 0,-7.006 -3.055,0 0,7.006 m -17.445,-7.006 -3.055,0 0,7.006 3.055,0 0,-7.006 m 17.445,-6.99401 3.055,0 0,-7.00599 -3.055,0 0,7.00599 m -17.445,20.99401 -3.055,0 0,7.006 3.055,0 0,-7.006 m 17.445,-34.995 3.055,0 0,-7.004 -3.055,0 0,7.004 m -17.445,48.996 -3.055,0 0,7.005 3.055,0 0,-7.005 m 17.445,-62.996 3.055,0 0,-7.005 -3.055,0 0,7.005 m -17.445,76.99601 -3.055,0 0,7.004983 3.055,0 0,-7.004983 m 53.445,35.003983 3.05501,0 0,-7.00499 -3.05501,0 0,7.00499 m -53.445,-21.00399 -3.055,0 0,7.00499 3.055,0 0,-7.00499 m 53.445,7.00499 3.05501,0 0,-7.00499 -3.05501,0 0,7.00499 m -53.445,6.99401 -3.055,0 0,7.00499 3.055,0 0,-7.00499 m 53.445,-20.99401 3.05501,0 0,-7.004983 -3.05501,0 0,7.004983 m -89.44489,-91.005993 -3.055,0 0,7.005 3.055,0 0,-7.005 m 89.44501,77.006 3.055,0 0,-7.005 -3.055,0 0,7.005 m -89.44501,-63.005 -3.055,0 0,7.004 3.055,0 0,-7.004 m 89.44501,49.005 3.055,0 0,-7.006 -3.055,0 0,7.006 m -89.44501,-35.006 -3.055,0 0,7.00599 3.055,0 0,-7.00599 m 89.44501,21.006 3.055,0 0,-7.006 -3.055,0 0,7.006 m -89.44501,-7.006 -3.055,0 0,7.006 3.055,0 0,-7.006 m 89.44501,-34.995 3.055,0 0,-7.005 -3.055,0 0,7.005 m 3.055,20.995 -3.055,0 0,7.00599 3.055,0 0,-7.00599 m 0,-13.999 -3.055,0 0,7.004 3.055,0 0,-7.004 m 17.445,105.003993 3.054,0 0,-7.00499 -3.054,0 0,7.00499 m -109.94501,-63.004993 -3.055,0 0,7.006 3.055,0 0,-7.006 m 109.94501,49.005993 3.054,0 0,-7.00499 -3.054,0 0,7.00499 m -133.50101,13.999 0.001,0 3.055,0 0,-7.00499 -3.055,0 -0.001,0 0,7.00499 m 133.50101,-41.998993 3.054,0 0,-7.005 -3.054,0 0,7.005 m 0,13.999993 3.054,0 10e-4,0 0,-7.004983 -10e-4,0 -3.054,0 0,7.004983 m -169.50101,27.999 9.8e-4,0 3.05401,0 0,-7.00499 -3.05401,0 -9.8e-4,0 0,7.00499 m 169.50101,-69.998993 3.054,0 0,-7.006 -3.054,0 0,7.006 m 0,14 3.054,0 0,-7.006 -3.054,0 0,7.006 m -166.44501,41.999993 0,-7.00499 -3.055,0 0,7.00499 3.054,0 9.8e-4,0 m 166.44503,-84.000993 3.054,0 0,-7.004 -3.054,0 0,7.004 m 0,14.00099 3.054,0 0,-7.00599 -3.054,0 0,7.00599 m -169.50001,56.000003 3.055,0 0,-7.004983 -3.055,0 0,7.004983 m 169.50001,-84.000993 3.054,0 0,-7.005 -3.054,0 0,7.005 m -109.94501,62.996 -3.055,0 0,7.005 3.055,0 0,-7.005 m 145.94501,49.003993 3.054,0 0,-7.00499 -3.054,0 0,7.00499 m -205.50001,-55.998993 3.055,0 0,-7.006 -3.055,0 0,7.006 m 0,14 3.055,0 0,-7.005 -3.055,0 0,7.005 m 205.50001,27.999993 3.054,0 0,-7.00499 -3.054,0 0,7.00499 m 0,-14 3.054,0 0,-7.004983 -3.054,0 0,7.004983 m -205.50001,-56.000003 3.055,0 0,-7.00599 -3.055,0 0,7.00599 m 0,14.00001 3.055,0 0,-7.006 -3.055,0 0,7.006 m 205.50001,28 3.054,0 0,-7.005 -3.054,0 0,7.005 m -205.50001,-56.001 3.055,0 0,-7.004 -3.055,0 0,7.004 m 205.50001,42.001 3.054,0 0,-7.006 -3.054,0 0,7.006 m -205.50001,-56.001 3.055,0 0,-7.005 -3.055,0 0,7.005 m 205.50001,42.001 3.054,0 0,-7.006 -3.054,0 0,7.006 m -169.50001,55.999993 3.055,0 0,-7.00499 -3.055,0 0,7.00499 m 169.50001,-70.000003 3.054,0 0,-7.00599 -3.054,0 0,7.00599 m -169.50001,56.000003 3.055,0 0,-7.004983 -3.055,0 0,7.004983 m 169.50001,-70.000993 3.054,0 0,-7.004 -3.054,0 0,7.004 m -169.50001,56.001 3.055,0 0,-7.005 -3.055,0 0,7.005 m 169.50001,-70.001 3.054,0 0,-7.005 -3.054,0 0,7.005 m -169.50001,56.001 3.055,0 0,-7.006 -3.055,0 0,7.006 m 190.00001,41.999993 3.054,0 0,-7.00499 -3.054,0 0,7.00499 m -190.00001,-55.999993 3.055,0 0,-7.006 -3.055,0 0,7.006 m 193.05401,62.994003 -3.054,0 0,7.00499 3.054,0 0,-7.00499 m -3.054,-20.99401 3.054,0 0,-7.004983 -3.054,0 0,7.004983 m -166.44501,-7.004983 -3.055,0 0,7.004983 3.055,0 0,-7.004983 m 166.44501,-6.99501 3.054,0 0,-7.005 -3.054,0 0,7.005 m -166.44501,20.995003 -3.055,0 0,7.00499 3.054,0 0.001,0 0,-7.00499 m 166.44501,-34.995003 3.054,0 0,-7.006 -3.054,0 0,7.006 m -166.44601,48.994003 -3.054,0 0,7.00499 3.054,0 0,-7.00499 m 166.44601,-62.994003 3.054,0 0,-7.006 -3.054,0 0,7.006 m -186.94511,-49.006 -3.055,0 0,7.005 3.055,0 0,-7.005 m 186.94501,35.00599 3.054,0 0,-7.00599 -3.054,0 0,7.00599 m -186.94491,-21.00499 -3.055,0 0,7.004 3.055,0 0,-7.004 m 186.94501,7.004 3.054,0 0,-7.004 -3.054,0 0,7.004 m 0,-14 3.054,0 0,-7.005 -3.054,0 0,7.005 m -186.94501,20.995 -3.055,0 0,7.00599 3.055,0 0,-7.00599 z" style="fill:none;stroke:#00f;stroke-width:.01mm"/><path id="path3550-3" d="m 473.43075,274.3984 -3.448,0 -3.054,0 -17.446,0 -3.054,0 -32.94501,0 -0.001,0 -3.054,0 -17.445,0 -3.055,0 -32.945,0 -3.05501,0 -17.445,0 -3.055,0 -32.945,0 -10e-4,0 -3.054,0 -17.445,0 -3.055,0 -10e-4,0 -32.944,0 -9.9e-4,0 -3.054,0 -9.9e-4,0 -2.997,0 0,-133.00001 2.997,0 9.9e-4,0 0,0.002 3.055,0 0,-0.002 32.944,0 0.001,0 0,0.002 3.055,0 0,-0.002 17.445,0 0,0.002 3.05501,0 0,-0.002 32.945,0 0,0.002 3.055,0 0,-0.002 17.445,0 0,0.002 3.055,0 0,-0.002 32.945,0 0,0.002 3.05501,0 0,-0.002 17.445,0 0,0.002 3.054,0 0,-0.002 0.001,0 32.94502,0 0,0.002 3.054,0 0,-0.002 17.446,0 0,0.002 3.054,0 0,-0.002 3.448,0 0,133.00001 m -116.44701,-14.003 -3.055,0 0,7.00499 3.055,0 0,-7.00499 m -3.055,-20.99401 3.055,0 0,-7.00499 -3.055,0 0,7.00499 m 0,14 3.055,0 0,-7.00499 -3.055,0 0,7.00499 m -17.44504,-105.00599 -3.055,0 0,7.00499 3.055,0 0,-7.00499 m 17.445,77.00599 3.055,0 0,-7.00499 -3.055,0 0,7.00499 m -17.445,-63.00499 -3.055,0 0,7.004 3.055,0 0,-7.004 m 17.445,49.00499 3.055,0 0,-7.00599 -3.055,0 0,7.00599 m -17.445,-35.006 -3.055,0 0,7.00599 3.055,0 0,-7.00599 m 17.445,21.00601 3.055,0 0,-7.006 -3.055,0 0,7.006 m -17.445,-7.006 -3.055,0 0,7.006 3.055,0 0,-7.006 m 17.445,-6.99402 3.055,0 0,-7.00599 -3.055,0 0,7.00599 m -17.445,20.99402 -3.055,0 0,7.00599 3.055,0 0,-7.00599 m 17.445,-34.995 3.055,0 0,-7.004 -3.055,0 0,7.004 m -17.445,48.996 -3.055,0 0,7.00499 3.055,0 0,-7.00499 m 17.445,-62.99601 3.055,0 0,-7.00499 -3.055,0 0,7.00499 m -17.445,76.99601 -3.055,0 0,7.00499 3.055,0 0,-7.00499 m 53.445,35.00399 3.05501,0 0,-7.00499 -3.05501,0 0,7.00499 m -53.445,-21.00399 -3.055,0 0,7.00499 3.055,0 0,-7.00499 m 53.445,7.00499 3.05501,0 0,-7.00499 -3.05501,0 0,7.00499 m -53.445,6.99401 -3.055,0 0,7.00499 3.055,0 0,-7.00499 m 53.445,-20.99401 3.05501,0 0,-7.00499 -3.05501,0 0,7.00499 m -89.44489,-91.00599 -3.055,0 0,7.00499 3.055,0 0,-7.00499 m 89.44501,77.00599 3.055,0 0,-7.00499 -3.055,0 0,7.00499 m -89.44501,-63.00499 -3.055,0 0,7.004 3.055,0 0,-7.004 m 89.44501,49.00499 3.055,0 0,-7.00599 -3.055,0 0,7.00599 m -89.44501,-35.006 -3.055,0 0,7.00599 3.055,0 0,-7.00599 m 89.44501,21.00601 3.055,0 0,-7.006 -3.055,0 0,7.006 m -89.44501,-7.006 -3.055,0 0,7.006 3.055,0 0,-7.006 m 89.44501,-34.99501 3.055,0 0,-7.00499 -3.055,0 0,7.00499 m 3.055,20.995 -3.055,0 0,7.00599 3.055,0 0,-7.00599 m 0,-13.99899 -3.055,0 0,7.004 3.055,0 0,-7.004 m 17.445,105.00399 3.054,0 0,-7.00499 -3.054,0 0,7.00499 m -109.94501,-63.00499 -3.055,0 0,7.00599 3.055,0 0,-7.00599 m 109.94501,49.00599 3.054,0 0,-7.00499 -3.054,0 0,7.00499 m -133.50101,13.999 10e-4,0 3.055,0 0,-7.00499 -3.055,0 -10e-4,0 0,7.00499 m 133.50101,-41.999 3.054,0 0,-7.00499 -3.054,0 0,7.00499 m 0,14 3.054,0 0.001,0 0,-7.00499 -0.001,0 -3.054,0 0,7.00499 m -169.50101,27.999 9.8e-4,0 3.05401,0 0,-7.00499 -3.05401,0 -9.8e-4,0 0,7.00499 m 169.50101,-69.99899 3.054,0 0,-7.006 -3.054,0 0,7.006 m 0,13.99999 3.054,0 0,-7.00599 -3.054,0 0,7.00599 m -166.44501,42 0,-7.00499 -3.055,0 0,7.00499 3.054,0 9.8e-4,0 m 166.44503,-84.00099 3.054,0 0,-7.004 -3.054,0 0,7.004 m 0,14.00098 3.054,0 0,-7.00599 -3.054,0 0,7.00599 m -169.50001,56.00001 3.055,0 0,-7.00499 -3.055,0 0,7.00499 m 169.50001,-84.001 3.054,0 0,-7.00499 -3.054,0 0,7.00499 m -109.94501,62.99601 -3.055,0 0,7.00499 3.055,0 0,-7.00499 m 145.94501,49.00399 3.054,0 0,-7.00499 -3.054,0 0,7.00499 m -205.50001,-55.999 3.055,0 0,-7.00599 -3.055,0 0,7.00599 m 0,14 3.055,0 0,-7.00499 -3.055,0 0,7.00499 m 205.50001,28 3.054,0 0,-7.00499 -3.054,0 0,7.00499 m 0,-14 3.054,0 0,-7.00499 -3.054,0 0,7.00499 m -205.50001,-56.00001 3.055,0 0,-7.00599 -3.055,0 0,7.00599 m 0,14.00002 3.055,0 0,-7.006 -3.055,0 0,7.006 m 205.50001,27.99999 3.054,0 0,-7.00499 -3.054,0 0,7.00499 m -205.50001,-56.00099 3.055,0 0,-7.004 -3.055,0 0,7.004 m 205.50001,42.00099 3.054,0 0,-7.00599 -3.054,0 0,7.00599 m -205.50001,-56.001 3.055,0 0,-7.00499 -3.055,0 0,7.00499 m 205.50001,42.00101 3.054,0 0,-7.006 -3.054,0 0,7.006 m -169.50001,55.99999 3.055,0 0,-7.00499 -3.055,0 0,7.00499 m 169.50001,-70.00001 3.054,0 0,-7.00599 -3.054,0 0,7.00599 m -169.50001,56.00001 3.055,0 0,-7.00499 -3.055,0 0,7.00499 m 169.50001,-70.00099 3.054,0 0,-7.004 -3.054,0 0,7.004 m -169.50001,56.00099 3.055,0 0,-7.00499 -3.055,0 0,7.00499 m 169.50001,-70.001 3.054,0 0,-7.00499 -3.054,0 0,7.00499 m -169.50001,56.001 3.055,0 0,-7.00599 -3.055,0 0,7.00599 m 190.00001,42 3.054,0 0,-7.00499 -3.054,0 0,7.00499 m -190.00001,-55.99999 3.055,0 0,-7.006 -3.055,0 0,7.006 m 193.05401,62.994 -3.054,0 0,7.00499 3.054,0 0,-7.00499 m -3.054,-20.99401 3.054,0 0,-7.00499 -3.054,0 0,7.00499 m -166.44501,-7.00499 -3.055,0 0,7.00499 3.055,0 0,-7.00499 m 166.44501,-6.99501 3.054,0 0,-7.00499 -3.054,0 0,7.00499 m -166.44501,20.99501 -3.055,0 0,7.00499 3.054,0 10e-4,0 0,-7.00499 m 166.44501,-34.99501 3.054,0 0,-7.00599 -3.054,0 0,7.00599 m -166.44601,48.99401 -3.054,0 0,7.00499 3.054,0 0,-7.00499 m 166.44601,-62.994 3.054,0 0,-7.006 -3.054,0 0,7.006 m -186.94511,-49.006 -3.055,0 0,7.00499 3.055,0 0,-7.00499 m 186.94501,35.00598 3.054,0 0,-7.00599 -3.054,0 0,7.00599 m -186.94501,-21.00498 -3.055,0 0,7.004 3.055,0 0,-7.004 m 186.94501,7.004 3.054,0 0,-7.004 -3.054,0 0,7.004 m 0,-14.00001 3.054,0 0,-7.00499 -3.054,0 0,7.00499 m -186.94501,20.995 -3.055,0 0,7.00599 3.055,0 0,-7.00599 z" style="fill:none;stroke:#00f;stroke-width:.01mm"/></g></svg>