<svg xmlns="http://www.w3.org/2000/svg" width="237.5mm" height="149mm" version="1.1" viewBox="29 -34 237.5 149"><title>svgOutput</title><desc>made with tinkercad</desc><path fill="none" stroke="#00F" stroke-width=".038" d="M 30 114 L 30 -33 L 33.04800033569336 -33 L 35.85300064086914 -33 L 69.0479965209961 -33 L 71.85199737548828 -33 L 89.49800109863281 -33 L 92.3030014038086 -33 L 96 -33 L 125.5479965209961 -33 L 128.3520050048828 -33 L 145.9980010986328 -33 L 148.802001953125 -33 L 152.5 -33 L 182.04800415039062 -33 L 184.85299682617188 -33 L 202.4980010986328 -33 L 205.302001953125 -33 L 209 -33 L 238.54800415039062 -33 L 241.35299682617188 -33 L 258.99798583984375 -33 L 261.802001953125 -33 L 265.5 -33 L 265.5 114 L 261.802001953125 114 L 258.99798583984375 114 L 241.35299682617188 114 L 238.54800415039062 114 L 209 114 L 205.302001953125 114 L 202.4980010986328 114 L 184.85299682617188 114 L 182.04800415039062 114 L 152.5 114 L 148.802001953125 114 L 145.9980010986328 114 L 128.3520050048828 114 L 125.5479965209961 114 L 96 114 L 92.3030014038086 114 L 89.49800109863281 114 L 71.85199737548828 114 L 69.0479965209961 114 L 35.85300064086914 114 L 33.04800033569336 114 L 30 114 M 146.04800415039062 44.097999572753906 L 146.04800415039062 50.90299987792969 L 148.802001953125 50.90299987792969 L 148.802001953125 44.097999572753906 L 146.04800415039062 44.097999572753906 M 146.04800415039062 30.097999572753906 L 146.04800415039062 36.90299987792969 L 148.802001953125 36.90299987792969 L 148.802001953125 30.097999572753906 L 146.04800415039062 30.097999572753906 M 146.04800415039062 64.9020004272461 L 148.802001953125 64.9020004272461 L 148.802001953125 58.097999572753906 L 146.04800415039062 58.097999572753906 L 146.04800415039062 64.9020004272461 M 146.04800415039062 16.097999572753906 L 146.04800415039062 22.902999877929688 L 148.802001953125 22.902999877929688 L 148.802001953125 16.097999572753906 L 146.04800415039062 16.097999572753906 M 146.04800415039062 78.90299987792969 L 148.802001953125 78.90299987792969 L 148.802001953125 72.0979995727539 L 146.04800415039062 72.0979995727539 L 146.04800415039062 78.90299987792969 M 146.04800415039062 2.0980000495910645 L 146.04800415039062 8.902999877929688 L 148.802001953125 8.902999877929688 L 148.802001953125 2.0980000495910645 L 146.04800415039062 2.0980000495910645 M 146.04800415039062 92.90299987792969 L 148.802001953125 92.90299987792969 L 148.802001953125 86.0979995727539 L 146.04800415039062 86.0979995727539 L 146.04800415039062 92.90299987792969 M 146.04800415039062 -11.902999877929688 L 146.04800415039062 -5.0980000495910645 L 148.802001953125 -5.0980000495910645 L 148.802001953125 -11.902999877929688 L 146.04800415039062 -11.902999877929688 M 146.04800415039062 106.90299987792969 L 148.802001953125 106.90299987792969 L 148.802001953125 100.0979995727539 L 146.04800415039062 100.0979995727539 L 146.04800415039062 106.90299987792969 M 146.04800415039062 -25.902999877929688 L 146.04800415039062 -19.097999572753906 L 148.802001953125 -19.097999572753906 L 148.802001953125 -25.902999877929688 L 146.04800415039062 -25.902999877929688 M 261.802001953125 -25.902999877929688 L 258.99798583984375 -25.902999877929688 L 258.99798583984375 -19.097999572753906 L 261.802001953125 -19.097999572753906 L 261.802001953125 -25.902999877929688 M 261.802001953125 -11.902999877929688 L 258.99798583984375 -11.902999877929688 L 258.99798583984375 -5.0980000495910645 L 261.802001953125 -5.0980000495910645 L 261.802001953125 -11.902999877929688 M 261.802001953125 2.0980000495910645 L 258.99798583984375 2.0980000495910645 L 258.99798583984375 8.902999877929688 L 261.802001953125 8.902999877929688 L 261.802001953125 2.0980000495910645 M 261.802001953125 16.097999572753906 L 258.99798583984375 16.097999572753906 L 258.99798583984375 22.902999877929688 L 261.802001953125 22.902999877929688 L 261.802001953125 16.097999572753906 M 261.802001953125 30.097999572753906 L 258.99798583984375 30.097999572753906 L 258.99798583984375 36.90299987792969 L 261.802001953125 36.90299987792969 L 261.802001953125 30.097999572753906 M 261.802001953125 44.097999572753906 L 258.99798583984375 44.097999572753906 L 258.99798583984375 50.90299987792969 L 261.802001953125 50.90299987792969 L 261.802001953125 44.097999572753906 M 261.802001953125 58.097999572753906 L 258.99798583984375 58.097999572753906 L 258.99798583984375 64.9020004272461 L 261.802001953125 64.9020004272461 L 261.802001953125 58.097999572753906 M 261.802001953125 72.0979995727539 L 258.99798583984375 72.0979995727539 L 258.99798583984375 78.90299987792969 L 261.802001953125 78.90299987792969 L 261.802001953125 72.0979995727539 M 261.802001953125 86.0979995727539 L 258.99798583984375 86.0979995727539 L 258.99798583984375 92.90299987792969 L 261.802001953125 92.90299987792969 L 261.802001953125 86.0979995727539 M 261.802001953125 100.0979995727539 L 258.99798583984375 100.0979995727539 L 258.99798583984375 106.90299987792969 L 261.802001953125 106.90299987792969 L 261.802001953125 100.0979995727539 M 241.35299682617188 -25.902999877929688 L 238.54800415039062 -25.902999877929688 L 238.54800415039062 -19.097999572753906 L 241.35299682617188 -19.097999572753906 L 241.35299682617188 -25.902999877929688 M 241.35299682617188 -11.902999877929688 L 238.54800415039062 -11.902999877929688 L 238.54800415039062 -5.0980000495910645 L 241.35299682617188 -5.0980000495910645 L 241.35299682617188 -11.902999877929688 M 241.35299682617188 2.0980000495910645 L 238.54800415039062 2.0980000495910645 L 238.54800415039062 8.902999877929688 L 241.35299682617188 8.902999877929688 L 241.35299682617188 2.0980000495910645 M 241.35299682617188 16.097999572753906 L 238.54800415039062 16.097999572753906 L 238.54800415039062 22.902999877929688 L 241.35299682617188 22.902999877929688 L 241.35299682617188 16.097999572753906 M 241.35299682617188 30.097999572753906 L 238.54800415039062 30.097999572753906 L 238.54800415039062 36.90299987792969 L 241.35299682617188 36.90299987792969 L 241.35299682617188 30.097999572753906 M 241.35299682617188 44.097999572753906 L 238.54800415039062 44.097999572753906 L 238.54800415039062 50.90299987792969 L 241.35299682617188 50.90299987792969 L 241.35299682617188 44.097999572753906 M 241.35299682617188 58.097999572753906 L 238.54800415039062 58.097999572753906 L 238.54800415039062 64.9020004272461 L 241.35299682617188 64.9020004272461 L 241.35299682617188 58.097999572753906 M 241.35299682617188 72.0979995727539 L 238.54800415039062 72.0979995727539 L 238.54800415039062 78.90299987792969 L 241.35299682617188 78.90299987792969 L 241.35299682617188 72.0979995727539 M 241.35299682617188 86.0979995727539 L 238.54800415039062 86.0979995727539 L 238.54800415039062 92.90299987792969 L 241.35299682617188 92.90299987792969 L 241.35299682617188 86.0979995727539 M 128.3520050048828 106.90299987792969 L 128.3520050048828 100.0979995727539 L 125.5479965209961 100.0979995727539 L 125.5479965209961 106.90299987792969 L 128.3520050048828 106.90299987792969 M 89.5479965209961 -19.097999572753906 L 92.3030014038086 -19.097999572753906 L 92.3030014038086 -25.902999877929688 L 89.5479965209961 -25.902999877929688 L 89.5479965209961 -19.097999572753906 M 241.35299682617188 100.0979995727539 L 238.54800415039062 100.0979995727539 L 238.54800415039062 106.90299987792969 L 241.35299682617188 106.90299987792969 L 241.35299682617188 100.0979995727539 M 89.5479965209961 -5.0980000495910645 L 92.3030014038086 -5.0980000495910645 L 92.3030014038086 -11.902999877929688 L 89.5479965209961 -11.902999877929688 L 89.5479965209961 -5.0980000495910645 M 202.54800415039062 -19.097999572753906 L 205.302001953125 -19.097999572753906 L 205.302001953125 -25.902999877929688 L 202.54800415039062 -25.902999877929688 L 202.54800415039062 -19.097999572753906 M 89.5479965209961 8.902999877929688 L 92.3030014038086 8.902999877929688 L 92.3030014038086 2.0980000495910645 L 89.5479965209961 2.0980000495910645 L 89.5479965209961 8.902999877929688 M 202.54800415039062 -5.0980000495910645 L 205.302001953125 -5.0980000495910645 L 205.302001953125 -11.902999877929688 L 202.54800415039062 -11.902999877929688 L 202.54800415039062 -5.0980000495910645 M 89.5479965209961 22.902999877929688 L 92.3030014038086 22.902999877929688 L 92.3030014038086 16.097999572753906 L 89.5479965209961 16.097999572753906 L 89.5479965209961 22.902999877929688 M 202.54800415039062 8.902999877929688 L 205.302001953125 8.902999877929688 L 205.302001953125 2.0980000495910645 L 202.54800415039062 2.0980000495910645 L 202.54800415039062 8.902999877929688 M 89.5479965209961 36.90299987792969 L 92.3030014038086 36.90299987792969 L 92.3030014038086 30.097999572753906 L 89.5479965209961 30.097999572753906 L 89.5479965209961 36.90299987792969 M 202.54800415039062 22.902999877929688 L 205.302001953125 22.902999877929688 L 205.302001953125 16.097999572753906 L 202.54800415039062 16.097999572753906 L 202.54800415039062 22.902999877929688 M 89.5479965209961 50.90299987792969 L 92.3030014038086 50.90299987792969 L 92.3030014038086 44.097999572753906 L 89.5479965209961 44.097999572753906 L 89.5479965209961 50.90299987792969 M 202.54800415039062 36.90299987792969 L 205.302001953125 36.90299987792969 L 205.302001953125 30.097999572753906 L 202.54800415039062 30.097999572753906 L 202.54800415039062 36.90299987792969 M 89.5479965209961 64.9020004272461 L 92.3030014038086 64.9020004272461 L 92.3030014038086 58.097999572753906 L 89.5479965209961 58.097999572753906 L 89.5479965209961 64.9020004272461 M 202.54800415039062 50.90299987792969 L 205.302001953125 50.90299987792969 L 205.302001953125 44.097999572753906 L 202.54800415039062 44.097999572753906 L 202.54800415039062 50.90299987792969 M 89.5479965209961 78.90299987792969 L 92.3030014038086 78.90299987792969 L 92.3030014038086 72.0979995727539 L 89.5479965209961 72.0979995727539 L 89.5479965209961 78.90299987792969 M 202.54800415039062 64.9020004272461 L 205.302001953125 64.9020004272461 L 205.302001953125 58.097999572753906 L 202.54800415039062 58.097999572753906 L 202.54800415039062 64.9020004272461 M 89.5479965209961 92.90299987792969 L 92.3030014038086 92.90299987792969 L 92.3030014038086 86.0979995727539 L 89.5479965209961 86.0979995727539 L 89.5479965209961 92.90299987792969 M 202.54800415039062 78.90299987792969 L 205.302001953125 78.90299987792969 L 205.302001953125 72.0979995727539 L 202.54800415039062 72.0979995727539 L 202.54800415039062 78.90299987792969 M 89.5479965209961 106.90299987792969 L 92.3030014038086 106.90299987792969 L 92.3030014038086 100.0979995727539 L 89.5479965209961 100.0979995727539 L 89.5479965209961 106.90299987792969 M 202.54800415039062 92.90299987792969 L 205.302001953125 92.90299987792969 L 205.302001953125 86.0979995727539 L 202.54800415039062 86.0979995727539 L 202.54800415039062 92.90299987792969 M 202.54800415039062 106.90299987792969 L 205.302001953125 106.90299987792969 L 205.302001953125 100.0979995727539 L 202.54800415039062 100.0979995727539 L 202.54800415039062 106.90299987792969 M 184.85299682617188 -25.902999877929688 L 182.04800415039062 -25.902999877929688 L 182.04800415039062 -19.097999572753906 L 184.85299682617188 -19.097999572753906 L 184.85299682617188 -25.902999877929688 M 184.85299682617188 -11.902999877929688 L 182.04800415039062 -11.902999877929688 L 182.04800415039062 -5.0980000495910645 L 184.85299682617188 -5.0980000495910645 L 184.85299682617188 -11.902999877929688 M 184.85299682617188 2.0980000495910645 L 182.04800415039062 2.0980000495910645 L 182.04800415039062 8.902999877929688 L 184.85299682617188 8.902999877929688 L 184.85299682617188 2.0980000495910645 M 184.85299682617188 16.097999572753906 L 182.04800415039062 16.097999572753906 L 182.04800415039062 22.902999877929688 L 184.85299682617188 22.902999877929688 L 184.85299682617188 16.097999572753906 M 184.85299682617188 30.097999572753906 L 182.04800415039062 30.097999572753906 L 182.04800415039062 36.90299987792969 L 184.85299682617188 36.90299987792969 L 184.85299682617188 30.097999572753906 M 184.85299682617188 44.097999572753906 L 182.04800415039062 44.097999572753906 L 182.04800415039062 50.90299987792969 L 184.85299682617188 50.90299987792969 L 184.85299682617188 44.097999572753906 M 184.85299682617188 58.097999572753906 L 182.04800415039062 58.097999572753906 L 182.04800415039062 64.9020004272461 L 184.85299682617188 64.9020004272461 L 184.85299682617188 58.097999572753906 M 184.85299682617188 72.0979995727539 L 182.04800415039062 72.0979995727539 L 182.04800415039062 78.90299987792969 L 184.85299682617188 78.90299987792969 L 184.85299682617188 72.0979995727539 M 184.85299682617188 86.0979995727539 L 182.04800415039062 86.0979995727539 L 182.04800415039062 92.90299987792969 L 184.85299682617188 92.90299987792969 L 184.85299682617188 86.0979995727539 M 184.85299682617188 100.0979995727539 L 182.04800415039062 100.0979995727539 L 182.04800415039062 106.90299987792969 L 184.85299682617188 106.90299987792969 L 184.85299682617188 100.0979995727539 M 71.85199737548828 58.097999572753906 L 69.0479965209961 58.097999572753906 L 69.0479965209961 64.9020004272461 L 71.85199737548828 64.9020004272461 L 71.85199737548828 58.097999572753906 M 69.0479965209961 36.90299987792969 L 71.85199737548828 36.90299987792969 L 71.85199737548828 30.097999572753906 L 69.0479965209961 30.097999572753906 L 69.0479965209961 36.90299987792969 M 69.0479965209961 50.90299987792969 L 71.85199737548828 50.90299987792969 L 71.85199737548828 44.097999572753906 L 69.0479965209961 44.097999572753906 L 69.0479965209961 50.90299987792969 M 71.85199737548828 72.0979995727539 L 69.0479965209961 72.0979995727539 L 69.0479965209961 78.90299987792969 L 71.85199737548828 78.90299987792969 L 71.85199737548828 72.0979995727539 M 69.0479965209961 22.902999877929688 L 71.85199737548828 22.902999877929688 L 71.85199737548828 16.097999572753906 L 69.0479965209961 16.097999572753906 L 69.0479965209961 22.902999877929688 M 71.85199737548828 86.0979995727539 L 69.0479965209961 86.0979995727539 L 69.0479965209961 92.90299987792969 L 71.85199737548828 92.90299987792969 L 71.85199737548828 86.0979995727539 M 69.0479965209961 8.902999877929688 L 71.85199737548828 8.902999877929688 L 71.85199737548828 2.0980000495910645 L 69.0479965209961 2.0980000495910645 L 69.0479965209961 8.902999877929688 M 71.85199737548828 100.0979995727539 L 69.0479965209961 100.0979995727539 L 69.0479965209961 106.90299987792969 L 71.85199737548828 106.90299987792969 L 71.85199737548828 100.0979995727539 M 128.3520050048828 -25.902999877929688 L 125.5479965209961 -25.902999877929688 L 125.5479965209961 -19.097999572753906 L 128.3520050048828 -19.097999572753906 L 128.3520050048828 -25.902999877929688 M 128.3520050048828 -11.902999877929688 L 125.5479965209961 -11.902999877929688 L 125.5479965209961 -5.0980000495910645 L 128.3520050048828 -5.0980000495910645 L 128.3520050048828 -11.902999877929688 M 128.3520050048828 2.0980000495910645 L 125.5479965209961 2.0980000495910645 L 125.5479965209961 8.902999877929688 L 128.3520050048828 8.902999877929688 L 128.3520050048828 2.0980000495910645 M 128.3520050048828 16.097999572753906 L 125.5479965209961 16.097999572753906 L 125.5479965209961 22.902999877929688 L 128.3520050048828 22.902999877929688 L 128.3520050048828 16.097999572753906 M 128.3520050048828 30.097999572753906 L 125.5479965209961 30.097999572753906 L 125.5479965209961 36.90299987792969 L 128.3520050048828 36.90299987792969 L 128.3520050048828 30.097999572753906 M 128.3520050048828 44.097999572753906 L 125.5479965209961 44.097999572753906 L 125.5479965209961 50.90299987792969 L 128.3520050048828 50.90299987792969 L 128.3520050048828 44.097999572753906 M 128.3520050048828 58.097999572753906 L 125.5479965209961 58.097999572753906 L 125.5479965209961 64.9020004272461 L 128.3520050048828 64.9020004272461 L 128.3520050048828 58.097999572753906 M 128.3520050048828 72.0979995727539 L 125.5479965209961 72.0979995727539 L 125.5479965209961 78.90299987792969 L 128.3520050048828 78.90299987792969 L 128.3520050048828 72.0979995727539 M 128.3520050048828 86.0979995727539 L 125.5479965209961 86.0979995727539 L 125.5479965209961 92.90299987792969 L 128.3520050048828 92.90299987792969 L 128.3520050048828 86.0979995727539 M 71.85199737548828 -25.902999877929688 L 69.0479965209961 -25.902999877929688 L 69.0479965209961 -19.097999572753906 L 71.85199737548828 -19.097999572753906 L 71.85199737548828 -25.902999877929688 M 71.85199737548828 -11.902999877929688 L 69.0479965209961 -11.902999877929688 L 69.0479965209961 -5.0980000495910645 L 71.85199737548828 -5.0980000495910645 L 71.85199737548828 -11.902999877929688 M 35.85300064086914 -25.902999877929688 L 33.04800033569336 -25.902999877929688 L 33.04800033569336 -19.097999572753906 L 35.85300064086914 -19.097999572753906 L 35.85300064086914 -25.902999877929688 M 35.85300064086914 -11.902999877929688 L 33.04800033569336 -11.902999877929688 L 33.04800033569336 -5.0980000495910645 L 35.85300064086914 -5.0980000495910645 L 35.85300064086914 -11.902999877929688 M 35.85300064086914 2.0980000495910645 L 33.04800033569336 2.0980000495910645 L 33.04800033569336 8.902999877929688 L 35.85300064086914 8.902999877929688 L 35.85300064086914 2.0980000495910645 M 35.85300064086914 16.097999572753906 L 33.04800033569336 16.097999572753906 L 33.04800033569336 22.902999877929688 L 35.85300064086914 22.902999877929688 L 35.85300064086914 16.097999572753906 M 35.85300064086914 30.097999572753906 L 33.04800033569336 30.097999572753906 L 33.04800033569336 36.90299987792969 L 35.85300064086914 36.90299987792969 L 35.85300064086914 30.097999572753906 M 35.85300064086914 44.097999572753906 L 33.04800033569336 44.097999572753906 L 33.04800033569336 50.90299987792969 L 35.85300064086914 50.90299987792969 L 35.85300064086914 44.097999572753906 M 33.04800033569336 106.90299987792969 L 35.85300064086914 106.90299987792969 L 35.85300064086914 100.0979995727539 L 33.04800033569336 100.0979995727539 L 33.04800033569336 106.90299987792969 M 33.04800033569336 92.90299987792969 L 35.85300064086914 92.90299987792969 L 35.85300064086914 86.0979995727539 L 33.04800033569336 86.0979995727539 L 33.04800033569336 92.90299987792969 M 35.85300064086914 58.097999572753906 L 33.04800033569336 58.097999572753906 L 33.04800033569336 64.9020004272461 L 35.85300064086914 64.9020004272461 L 35.85300064086914 58.097999572753906 M 35.85300064086914 72.0979995727539 L 33.04800033569336 72.0979995727539 L 33.04800033569336 78.90299987792969 L 35.85300064086914 78.90299987792969 L 35.85300064086914 72.0979995727539 z"/></svg>