<svg xmlns="http://www.w3.org/2000/svg" width="237.5mm" height="135mm" version="1.1" viewBox="-31 -54.5 237.5 135"><title>svgOutput</title><desc>made with tinkercad</desc><path fill="none" stroke="#00F" stroke-width=".038" d="M 205.5 79.5 L 202.052001953125 79.5 L 198.9980010986328 79.5 L 181.552001953125 79.5 L 178.4980010986328 79.5 L 145.55299377441406 79.5 L 145.552001953125 79.5 L 142.4980010986328 79.5 L 125.0530014038086 79.5 L 121.99800109863281 79.5 L 89.0530014038086 79.5 L 85.99800109863281 79.5 L 68.5530014038086 79.5 L 65.49800109863281 79.5 L 32.553001403808594 79.5 L 32.551998138427734 79.5 L 29.49799919128418 79.5 L 12.053000450134277 79.5 L 8.998000144958496 79.5 L 8.996999740600586 79.5 L -23.94700050354004 79.5 L -23.947999954223633 79.5 L -27.00200080871582 79.5 L -27.003000259399414 79.5 L -30 79.5 L -30 -53.5 L -27.003000259399414 -53.5 L -27.00200080871582 -53.5 L -27.00200080871582 -53.49800109863281 L -23.94700050354004 -53.49800109863281 L -23.94700050354004 -53.5 L 8.996999740600586 -53.5 L 8.998000144958496 -53.5 L 8.998000144958496 -53.49800109863281 L 12.053000450134277 -53.49800109863281 L 12.053000450134277 -53.5 L 29.49799919128418 -53.5 L 29.49799919128418 -53.49800109863281 L 32.553001403808594 -53.49800109863281 L 32.553001403808594 -53.5 L 65.49800109863281 -53.5 L 65.49800109863281 -53.49800109863281 L 68.5530014038086 -53.49800109863281 L 68.5530014038086 -53.5 L 85.99800109863281 -53.5 L 85.99800109863281 -53.49800109863281 L 89.0530014038086 -53.49800109863281 L 89.0530014038086 -53.5 L 121.99800109863281 -53.5 L 121.99800109863281 -53.49800109863281 L 125.0530014038086 -53.49800109863281 L 125.0530014038086 -53.5 L 142.4980010986328 -53.5 L 142.4980010986328 -53.49800109863281 L 145.552001953125 -53.49800109863281 L 145.552001953125 -53.5 L 145.55299377441406 -53.5 L 178.4980010986328 -53.5 L 178.4980010986328 -53.49800109863281 L 181.552001953125 -53.49800109863281 L 181.552001953125 -53.5 L 198.9980010986328 -53.5 L 198.9980010986328 -53.49800109863281 L 202.052001953125 -53.49800109863281 L 202.052001953125 -53.5 L 205.5 -53.5 L 205.5 79.5 M 89.0530014038086 65.49700164794922 L 85.99800109863281 65.49700164794922 L 85.99800109863281 72.50199890136719 L 89.0530014038086 72.50199890136719 L 89.0530014038086 65.49700164794922 M 85.99800109863281 44.50299835205078 L 89.0530014038086 44.50299835205078 L 89.0530014038086 37.49800109863281 L 85.99800109863281 37.49800109863281 L 85.99800109863281 44.50299835205078 M 85.99800109863281 58.50299835205078 L 89.0530014038086 58.50299835205078 L 89.0530014038086 51.49800109863281 L 85.99800109863281 51.49800109863281 L 85.99800109863281 58.50299835205078 M 68.5530014038086 -46.50299835205078 L 65.49800109863281 -46.50299835205078 L 65.49800109863281 -39.49800109863281 L 68.5530014038086 -39.49800109863281 L 68.5530014038086 -46.50299835205078 M 85.99800109863281 30.503000259399414 L 89.0530014038086 30.503000259399414 L 89.0530014038086 23.49799919128418 L 85.99800109863281 23.49799919128418 L 85.99800109863281 30.503000259399414 M 68.5530014038086 -32.50199890136719 L 65.49800109863281 -32.50199890136719 L 65.49800109863281 -25.49799919128418 L 68.5530014038086 -25.49799919128418 L 68.5530014038086 -32.50199890136719 M 85.99800109863281 16.503000259399414 L 89.0530014038086 16.503000259399414 L 89.0530014038086 9.496999740600586 L 85.99800109863281 9.496999740600586 L 85.99800109863281 16.503000259399414 M 68.5530014038086 -18.503000259399414 L 65.49800109863281 -18.503000259399414 L 65.49800109863281 -11.497010231018066 L 68.5530014038086 -11.497010231018066 L 68.5530014038086 -18.503000259399414 M 85.99800109863281 2.503000020980835 L 89.0530014038086 2.503000020980835 L 89.0530014038086 -4.502999782562256 L 85.99800109863281 -4.502999782562256 L 85.99800109863281 2.503000020980835 M 68.5530014038086 -4.502999782562256 L 65.49800109863281 -4.502999782562256 L 65.49800109863281 2.503000020980835 L 68.5530014038086 2.503000020980835 L 68.5530014038086 -4.502999782562256 M 85.99800109863281 -11.497010231018066 L 89.0530014038086 -11.497010231018066 L 89.0530014038086 -18.503000259399414 L 85.99800109863281 -18.503000259399414 L 85.99800109863281 -11.497010231018066 M 68.5530014038086 9.496999740600586 L 65.49800109863281 9.496999740600586 L 65.49800109863281 16.503000259399414 L 68.5530014038086 16.503000259399414 L 68.5530014038086 9.496999740600586 M 85.99800109863281 -25.49799919128418 L 89.0530014038086 -25.49799919128418 L 89.0530014038086 -32.50199890136719 L 85.99800109863281 -32.50199890136719 L 85.99800109863281 -25.49799919128418 M 68.5530014038086 23.49799919128418 L 65.49800109863281 23.49799919128418 L 65.49800109863281 30.503000259399414 L 68.5530014038086 30.503000259399414 L 68.5530014038086 23.49799919128418 M 85.99800109863281 -39.49800109863281 L 89.0530014038086 -39.49800109863281 L 89.0530014038086 -46.50299835205078 L 85.99800109863281 -46.50299835205078 L 85.99800109863281 -39.49800109863281 M 68.5530014038086 37.49800109863281 L 65.49800109863281 37.49800109863281 L 65.49800109863281 44.50299835205078 L 68.5530014038086 44.50299835205078 L 68.5530014038086 37.49800109863281 M 121.99800109863281 72.50199890136719 L 125.0530014038086 72.50199890136719 L 125.0530014038086 65.49700164794922 L 121.99800109863281 65.49700164794922 L 121.99800109863281 72.50199890136719 M 68.5530014038086 51.49800109863281 L 65.49800109863281 51.49800109863281 L 65.49800109863281 58.50299835205078 L 68.5530014038086 58.50299835205078 L 68.5530014038086 51.49800109863281 M 121.99800109863281 58.50299835205078 L 125.0530014038086 58.50299835205078 L 125.0530014038086 51.49800109863281 L 121.99800109863281 51.49800109863281 L 121.99800109863281 58.50299835205078 M 68.5530014038086 65.49700164794922 L 65.49800109863281 65.49700164794922 L 65.49800109863281 72.50199890136719 L 68.5530014038086 72.50199890136719 L 68.5530014038086 65.49700164794922 M 121.99800109863281 44.50299835205078 L 125.0530014038086 44.50299835205078 L 125.0530014038086 37.49800109863281 L 121.99800109863281 37.49800109863281 L 121.99800109863281 44.50299835205078 M 32.553001403808594 -46.50299835205078 L 29.49799919128418 -46.50299835205078 L 29.49799919128418 -39.49800109863281 L 32.553001403808594 -39.49800109863281 L 32.553001403808594 -46.50299835205078 M 121.99800109863281 30.503000259399414 L 125.0530014038086 30.503000259399414 L 125.0530014038086 23.49799919128418 L 121.99800109863281 23.49799919128418 L 121.99800109863281 30.503000259399414 M 32.553001403808594 -32.50199890136719 L 29.49799919128418 -32.50199890136719 L 29.49799919128418 -25.49799919128418 L 32.553001403808594 -25.49799919128418 L 32.553001403808594 -32.50199890136719 M 121.99800109863281 16.503000259399414 L 125.0530014038086 16.503000259399414 L 125.0530014038086 9.496999740600586 L 121.99800109863281 9.496999740600586 L 121.99800109863281 16.503000259399414 M 32.553001403808594 -18.503000259399414 L 29.49799919128418 -18.503000259399414 L 29.49799919128418 -11.497010231018066 L 32.553001403808594 -11.497010231018066 L 32.553001403808594 -18.503000259399414 M 121.99800109863281 2.503000020980835 L 125.0530014038086 2.503000020980835 L 125.0530014038086 -4.502999782562256 L 121.99800109863281 -4.502999782562256 L 121.99800109863281 2.503000020980835 M 32.553001403808594 -4.502999782562256 L 29.49799919128418 -4.502999782562256 L 29.49799919128418 2.503000020980835 L 32.553001403808594 2.503000020980835 L 32.553001403808594 -4.502999782562256 M 121.99800109863281 -39.49800109863281 L 125.0530014038086 -39.49800109863281 L 125.0530014038086 -46.50299835205078 L 121.99800109863281 -46.50299835205078 L 121.99800109863281 -39.49800109863281 M 125.0530014038086 -18.503000259399414 L 121.99800109863281 -18.503000259399414 L 121.99800109863281 -11.497010231018066 L 125.0530014038086 -11.497010231018066 L 125.0530014038086 -18.503000259399414 M 125.0530014038086 -32.50199890136719 L 121.99800109863281 -32.50199890136719 L 121.99800109863281 -25.49799919128418 L 125.0530014038086 -25.49799919128418 L 125.0530014038086 -32.50199890136719 M 142.4980010986328 72.50199890136719 L 145.552001953125 72.50199890136719 L 145.552001953125 65.49700164794922 L 142.4980010986328 65.49700164794922 L 142.4980010986328 72.50199890136719 M 32.553001403808594 9.496999740600586 L 29.49799919128418 9.496999740600586 L 29.49799919128418 16.503000259399414 L 32.553001403808594 16.503000259399414 L 32.553001403808594 9.496999740600586 M 142.4980010986328 58.50299835205078 L 145.552001953125 58.50299835205078 L 145.552001953125 51.49800109863281 L 142.4980010986328 51.49800109863281 L 142.4980010986328 58.50299835205078 M 8.996999740600586 72.50199890136719 L 8.998000144958496 72.50199890136719 L 12.053000450134277 72.50199890136719 L 12.053000450134277 65.49700164794922 L 8.998000144958496 65.49700164794922 L 8.996999740600586 65.49700164794922 L 8.996999740600586 72.50199890136719 M 142.4980010986328 30.503000259399414 L 145.552001953125 30.503000259399414 L 145.552001953125 23.49799919128418 L 142.4980010986328 23.49799919128418 L 142.4980010986328 30.503000259399414 M 142.4980010986328 44.50299835205078 L 145.552001953125 44.50299835205078 L 145.55299377441406 44.50299835205078 L 145.55299377441406 37.49800109863281 L 145.552001953125 37.49800109863281 L 142.4980010986328 37.49800109863281 L 142.4980010986328 44.50299835205078 M -27.003000259399414 72.50199890136719 L -27.00200080871582 72.50199890136719 L -23.947999954223633 72.50199890136719 L -23.947999954223633 65.49700164794922 L -27.00200080871582 65.49700164794922 L -27.003000259399414 65.49700164794922 L -27.003000259399414 72.50199890136719 M 142.4980010986328 2.503000020980835 L 145.552001953125 2.503000020980835 L 145.552001953125 -4.502999782562256 L 142.4980010986328 -4.502999782562256 L 142.4980010986328 2.503000020980835 M 142.4980010986328 16.503000259399414 L 145.552001953125 16.503000259399414 L 145.552001953125 9.496999740600586 L 142.4980010986328 9.496999740600586 L 142.4980010986328 16.503000259399414 M -23.94700050354004 58.50299835205078 L -23.94700050354004 51.49800109863281 L -27.00200080871582 51.49800109863281 L -27.00200080871582 58.50299835205078 L -23.947999954223633 58.50299835205078 L -23.94700050354004 58.50299835205078 M 142.4980010986328 -25.49799919128418 L 145.552001953125 -25.49799919128418 L 145.552001953125 -32.50199890136719 L 142.4980010986328 -32.50199890136719 L 142.4980010986328 -25.49799919128418 M 142.4980010986328 -11.497010231018066 L 145.552001953125 -11.497010231018066 L 145.552001953125 -18.503000259399414 L 142.4980010986328 -18.503000259399414 L 142.4980010986328 -11.497010231018066 M -27.00200080871582 44.50299835205078 L -23.94700050354004 44.50299835205078 L -23.94700050354004 37.49800109863281 L -27.00200080871582 37.49800109863281 L -27.00200080871582 44.50299835205078 M 142.4980010986328 -39.49800109863281 L 145.552001953125 -39.49800109863281 L 145.552001953125 -46.50299835205078 L 142.4980010986328 -46.50299835205078 L 142.4980010986328 -39.49800109863281 M 32.553001403808594 23.49799919128418 L 29.49799919128418 23.49799919128418 L 29.49799919128418 30.503000259399414 L 32.553001403808594 30.503000259399414 L 32.553001403808594 23.49799919128418 M 178.4980010986328 72.50199890136719 L 181.552001953125 72.50199890136719 L 181.552001953125 65.49700164794922 L 178.4980010986328 65.49700164794922 L 178.4980010986328 72.50199890136719 M -27.00200080871582 16.503000259399414 L -23.94700050354004 16.503000259399414 L -23.94700050354004 9.496999740600586 L -27.00200080871582 9.496999740600586 L -27.00200080871582 16.503000259399414 M -27.00200080871582 30.503000259399414 L -23.94700050354004 30.503000259399414 L -23.94700050354004 23.49799919128418 L -27.00200080871582 23.49799919128418 L -27.00200080871582 30.503000259399414 M 178.4980010986328 58.50299835205078 L 181.552001953125 58.50299835205078 L 181.552001953125 51.49800109863281 L 178.4980010986328 51.49800109863281 L 178.4980010986328 58.50299835205078 M 178.4980010986328 44.50299835205078 L 181.552001953125 44.50299835205078 L 181.552001953125 37.49800109863281 L 178.4980010986328 37.49800109863281 L 178.4980010986328 44.50299835205078 M -27.00200080871582 -11.497010231018066 L -23.94700050354004 -11.497010231018066 L -23.94700050354004 -18.503000259399414 L -27.00200080871582 -18.503000259399414 L -27.00200080871582 -11.497010231018066 M -27.00200080871582 2.503000020980835 L -23.94700050354004 2.503000020980835 L -23.94700050354004 -4.502999782562256 L -27.00200080871582 -4.502999782562256 L -27.00200080871582 2.503000020980835 M 178.4980010986328 30.503000259399414 L 181.552001953125 30.503000259399414 L 181.552001953125 23.49799919128418 L 178.4980010986328 23.49799919128418 L 178.4980010986328 30.503000259399414 M -27.00200080871582 -25.49799919128418 L -23.94700050354004 -25.49799919128418 L -23.94700050354004 -32.50199890136719 L -27.00200080871582 -32.50199890136719 L -27.00200080871582 -25.49799919128418 M 178.4980010986328 16.503000259399414 L 181.552001953125 16.503000259399414 L 181.552001953125 9.496999740600586 L 178.4980010986328 9.496999740600586 L 178.4980010986328 16.503000259399414 M -27.00200080871582 -39.49800109863281 L -23.94700050354004 -39.49800109863281 L -23.94700050354004 -46.50299835205078 L -27.00200080871582 -46.50299835205078 L -27.00200080871582 -39.49800109863281 M 178.4980010986328 2.503000020980835 L 181.552001953125 2.503000020980835 L 181.552001953125 -4.502999782562256 L 178.4980010986328 -4.502999782562256 L 178.4980010986328 2.503000020980835 M 8.998000144958496 58.50299835205078 L 12.053000450134277 58.50299835205078 L 12.053000450134277 51.49800109863281 L 8.998000144958496 51.49800109863281 L 8.998000144958496 58.50299835205078 M 178.4980010986328 -11.497010231018066 L 181.552001953125 -11.497010231018066 L 181.552001953125 -18.503000259399414 L 178.4980010986328 -18.503000259399414 L 178.4980010986328 -11.497010231018066 M 8.998000144958496 44.50299835205078 L 12.053000450134277 44.50299835205078 L 12.053000450134277 37.49800109863281 L 8.998000144958496 37.49800109863281 L 8.998000144958496 44.50299835205078 M 178.4980010986328 -25.49799919128418 L 181.552001953125 -25.49799919128418 L 181.552001953125 -32.50199890136719 L 178.4980010986328 -32.50199890136719 L 178.4980010986328 -25.49799919128418 M 8.998000144958496 30.503000259399414 L 12.053000450134277 30.503000259399414 L 12.053000450134277 23.49799919128418 L 8.998000144958496 23.49799919128418 L 8.998000144958496 30.503000259399414 M 178.4980010986328 -39.49800109863281 L 181.552001953125 -39.49800109863281 L 181.552001953125 -46.50299835205078 L 178.4980010986328 -46.50299835205078 L 178.4980010986328 -39.49800109863281 M 8.998000144958496 16.503000259399414 L 12.053000450134277 16.503000259399414 L 12.053000450134277 9.496999740600586 L 8.998000144958496 9.496999740600586 L 8.998000144958496 16.503000259399414 M 198.9980010986328 58.50299835205078 L 202.052001953125 58.50299835205078 L 202.052001953125 51.49800109863281 L 198.9980010986328 51.49800109863281 L 198.9980010986328 58.50299835205078 M 8.998000144958496 2.503000020980835 L 12.053000450134277 2.503000020980835 L 12.053000450134277 -4.502999782562256 L 8.998000144958496 -4.502999782562256 L 8.998000144958496 2.503000020980835 M 202.052001953125 65.49700164794922 L 198.9980010986328 65.49700164794922 L 198.9980010986328 72.50199890136719 L 202.052001953125 72.50199890136719 L 202.052001953125 65.49700164794922 M 198.9980010986328 44.50299835205078 L 202.052001953125 44.50299835205078 L 202.052001953125 37.49800109863281 L 198.9980010986328 37.49800109863281 L 198.9980010986328 44.50299835205078 M 32.553001403808594 37.49800109863281 L 29.49799919128418 37.49800109863281 L 29.49799919128418 44.50299835205078 L 32.553001403808594 44.50299835205078 L 32.553001403808594 37.49800109863281 M 198.9980010986328 30.503000259399414 L 202.052001953125 30.503000259399414 L 202.052001953125 23.49799919128418 L 198.9980010986328 23.49799919128418 L 198.9980010986328 30.503000259399414 M 32.553001403808594 51.49800109863281 L 29.49799919128418 51.49800109863281 L 29.49799919128418 58.50299835205078 L 32.551998138427734 58.50299835205078 L 32.553001403808594 58.50299835205078 L 32.553001403808594 51.49800109863281 M 198.9980010986328 16.503000259399414 L 202.052001953125 16.503000259399414 L 202.052001953125 9.496999740600586 L 198.9980010986328 9.496999740600586 L 198.9980010986328 16.503000259399414 M 32.551998138427734 65.49700164794922 L 29.49799919128418 65.49700164794922 L 29.49799919128418 72.50199890136719 L 32.551998138427734 72.50199890136719 L 32.551998138427734 65.49700164794922 M 198.9980010986328 2.503000020980835 L 202.052001953125 2.503000020980835 L 202.052001953125 -4.502999782562256 L 198.9980010986328 -4.502999782562256 L 198.9980010986328 2.503000020980835 M 12.053000450134277 -46.50299835205078 L 8.998000144958496 -46.50299835205078 L 8.998000144958496 -39.49800109863281 L 12.053000450134277 -39.49800109863281 L 12.053000450134277 -46.50299835205078 M 198.9980010986328 -11.497010231018066 L 202.052001953125 -11.497010231018066 L 202.052001953125 -18.503000259399414 L 198.9980010986328 -18.503000259399414 L 198.9980010986328 -11.497010231018066 M 12.053000450134277 -32.50199890136719 L 8.998000144958496 -32.50199890136719 L 8.998000144958496 -25.49799919128418 L 12.053000450134277 -25.49799919128418 L 12.053000450134277 -32.50199890136719 M 198.9980010986328 -25.49799919128418 L 202.052001953125 -25.49799919128418 L 202.052001953125 -32.50199890136719 L 198.9980010986328 -32.50199890136719 L 198.9980010986328 -25.49799919128418 M 198.9980010986328 -39.49800109863281 L 202.052001953125 -39.49800109863281 L 202.052001953125 -46.50299835205078 L 198.9980010986328 -46.50299835205078 L 198.9980010986328 -39.49800109863281 M 12.053000450134277 -18.503000259399414 L 8.998000144958496 -18.503000259399414 L 8.998000144958496 -11.497010231018066 L 12.053000450134277 -11.497010231018066 L 12.053000450134277 -18.503000259399414 z"/></svg>