<svg xmlns="http://www.w3.org/2000/svg" width="62mm" height="149mm" version="1.1" viewBox="39 134 62 149"><title>svgOutput</title><desc>made with tinkercad</desc><path fill="none" stroke="#00F" stroke-width=".038" d="M 40 170.0030059814453 L 44.00299835205078 170.0030059814453 L 44.00299835205078 162.9980010986328 L 40 162.9980010986328 L 40 156.0030059814453 L 44.00299835205078 156.0030059814453 L 44.00299835205078 148.9980010986328 L 40 148.9980010986328 L 40 142.0030059814453 L 44.00299835205078 142.0030059814453 L 44.00299835205078 135 L 49.99700164794922 135 L 90.00299835205078 135 L 100 135 L 100 282 L 90.00299835205078 282 L 49.99700164794922 282 L 44.00299835205078 282 L 44.00299835205078 274.99798583984375 L 40 274.99798583984375 L 40 268.00299072265625 L 44.00299835205078 268.00299072265625 L 44.00299835205078 260.99798583984375 L 40 260.99798583984375 L 40 254.0030059814453 L 44.00299835205078 254.0030059814453 L 44.00299835205078 246.9980010986328 L 40 246.9980010986328 L 40 240.0030059814453 L 44.00299835205078 240.0030059814453 L 44.00299835205078 232.9980010986328 L 40 232.9980010986328 L 40 226.0030059814453 L 44.00299835205078 226.0030059814453 L 44.00299835205078 218.9980010986328 L 40 218.9980010986328 L 40 212.0030059814453 L 44.00299835205078 212.0030059814453 L 44.00299835205078 204.9980010986328 L 40 204.9980010986328 L 40 198.0030059814453 L 44.00299835205078 198.0030059814453 L 44.00299835205078 190.9980010986328 L 40 190.9980010986328 L 40 184.0030059814453 L 44.00299835205078 184.0030059814453 L 44.00299835205078 176.9980010986328 L 40 176.9980010986328 L 40 170.0030059814453 M 90.00299835205078 145.9980010986328 L 49.99700164794922 145.9980010986328 L 49.99700164794922 206.0030059814453 L 90.00299835205078 206.0030059814453 L 90.00299835205078 145.9980010986328 M 90.00299835205078 212.9980010986328 L 49.99700164794922 212.9980010986328 L 49.99700164794922 273.00299072265625 L 90.00299835205078 273.00299072265625 L 90.00299835205078 212.9980010986328 z"/></svg>