<svg xmlns="http://www.w3.org/2000/svg" width="57mm" height="135mm" version="1.1" viewBox="-107.5 -53 57 135"><title>svgOutput</title><desc>made with tinkercad</desc><path fill="none" stroke="#00F" stroke-width=".038" d="M -106.5 -44.99800109863281 L -103.197998046875 -44.99800109863281 L -103.197998046875 -52 L -92.50199890136719 -52 L -60.49700164794922 -52 L -51.5 -52 L -51.5 81 L -60.49700164794922 81 L -92.50199890136719 81 L -103.197998046875 81 L -103.197998046875 73.99800109863281 L -106.5 73.99800109863281 L -106.5 67.00299835205078 L -103.197998046875 67.00299835205078 L -103.197998046875 59.99800109863281 L -106.5 59.99800109863281 L -106.5 53.00299835205078 L -103.197998046875 53.00299835205078 L -103.197998046875 45.99800109863281 L -106.5 45.99800109863281 L -106.5 39.00299835205078 L -103.197998046875 39.00299835205078 L -103.197998046875 31.99799919128418 L -106.5 31.99799919128418 L -106.5 25.003000259399414 L -103.197998046875 25.003000259399414 L -103.197998046875 17.99799919128418 L -106.5 17.99799919128418 L -106.5 11.003000259399414 L -103.197998046875 11.003000259399414 L -103.197998046875 3.997999906539917 L -106.5 3.997999906539917 L -106.5 -2.997999906539917 L -103.197998046875 -2.997999906539917 L -103.197998046875 -10.003000259399414 L -106.5 -10.003000259399414 L -106.5 -16.99799919128418 L -103.197998046875 -16.99799919128418 L -103.197998046875 -24.003000259399414 L -106.5 -24.003000259399414 L -106.5 -30.99799919128418 L -103.197998046875 -30.99799919128418 L -103.197998046875 -38.00299835205078 L -106.5 -38.00299835205078 L -106.5 -44.99800109863281 M -60.49700164794922 20.99799919128418 L -92.50199890136719 20.99799919128418 L -92.50199890136719 71.00299835205078 L -60.49700164794922 71.00299835205078 L -60.49700164794922 20.99799919128418 M -92.50199890136719 8.003000259399414 L -60.49700164794922 8.003000259399414 L -60.49700164794922 -42.00299835205078 L -92.50199890136719 -42.00299835205078 L -92.50199890136719 8.003000259399414 z"/></svg>